<svg id="c_" data-name="c#" xmlns="http://www.w3.org/2000/svg" viewBox="0 0 108 123.67"><defs><style>.cls-1{fill:#9b4f96;}.cls-2{fill:#68217a;}.cls-3{fill:#fff;}</style></defs><title>csharp</title><g id="original"><path class="cls-1" d="M115.36,30.74L67.12,2.89a7.12,7.12,0,0,0-6.25,0l-48,27.85A6.88,6.88,0,0,0,10,36.15v55.7a6.35,6.35,0,0,0,1,3.47l106.84-62A6.87,6.87,0,0,0,115.36,30.74Z" transform="translate(-10 -2.17)"/><path class="cls-2" d="M10.71,95.32a6.13,6.13,0,0,0,1.92,1.94l48.24,27.85a7.12,7.12,0,0,0,6.25,0l48-27.85A6.88,6.88,0,0,0,118,91.85V36.15a5.87,5.87,0,0,0-.57-2.82Z" transform="translate(-10 -2.17)"/><path class="cls-3" d="M85.29,76.09A24.5,24.5,0,1,1,85.35,52l13-7.52a39.5,39.5,0,1,0-.09,39.19Z" transform="translate(-10 -2.17)"/><path class="cls-3" d="M97,66.22l0.87-4.34H93.69V57.16h5.11L100,51h4.86l-1.23,6.12h3.75L108.64,51h4.84l-1.22,6.12h2.37v4.72h-3.31l-0.87,4.34h4.18v4.72h-5.12l-1.2,6h-4.86l1.21-6h-3.77l-1.21,6H94.84l1.21-6H93.69V66.22H97Zm4.84,0h3.76l0.87-4.34h-3.76Z" transform="translate(-10 -2.17)"/></g></svg>