<svg id="css3" xmlns="http://www.w3.org/2000/svg" viewBox="0 0 88.97 125.59"><defs><style>.cls-1{fill:#131313;}.cls-2{fill:#1572b6;}.cls-3{fill:#33a9dc;}.cls-4{fill:#fff;}.cls-5{fill:#ebebeb;}</style></defs><title>css3</title><g id="original-wordmark"><path id="Shape" class="cls-1" d="M89.23,153.86H81.85l7.68,8.33v4H73.71v-4.64h7.68l-7.68-8.33v-4H89.23v4.65h0Zm-18.66,0H63.19l7.68,8.33v4H55.05v-4.64h7.68l-7.68-8.33v-4H70.58v4.65h0ZM52.1,154h-8v7.27h8v4.84H38.47V149.21H52.1V154h0Z" transform="translate(-19.52 -149.21)"/><path id="Shape-2" data-name="Shape" class="cls-2" d="M27.61,264.71l-8.1-90.81h89l-8.1,90.8-36.43,10.1Z" transform="translate(-19.52 -149.21)"/><path id="Shape-3" data-name="Shape" class="cls-3" d="M64,267.07l29.44-8.16,6.93-77.59H64v85.75Z" transform="translate(-19.52 -149.21)"/><g id="Group"><path id="Shape-4" data-name="Shape" class="cls-4" d="M64,214.22H78.74l1-11.41H64V191.68H91.93l-0.27,3-2.74,30.69H64V214.22Z" transform="translate(-19.52 -149.21)"/><path id="Shape-5" data-name="Shape" class="cls-5" d="M64.07,243.15h0l-12.4-3.35-0.79-8.88H39.64l1.56,17.49L64,254.75h0.05V243.15Z" transform="translate(-19.52 -149.21)"/><path id="Shape-6" data-name="Shape" class="cls-4" d="M77.79,224.89L76.45,239.8,64,243.16v11.59l22.83-6.33L87,246.53,89,224.89H77.79Z" transform="translate(-19.52 -149.21)"/><path id="Shape-7" data-name="Shape" class="cls-5" d="M64,191.68v11.14H37.14l-0.22-2.5-0.51-5.65-0.27-3H64Z" transform="translate(-19.52 -149.21)"/><path id="Shape-8" data-name="Shape" class="cls-5" d="M64,214.22v11.14H51.75l-0.22-2.5L51,217.21l-0.27-3H64Z" transform="translate(-19.52 -149.21)"/></g></g></svg>