<svg id="javascript" xmlns="http://www.w3.org/2000/svg" viewBox="0 0 125.18 125.18"><defs><style>.cls-1{fill:#f0db4f;}.cls-2{fill:#323330;}</style></defs><title>javascript-1</title><g id="original"><rect class="cls-1" width="125.18" height="125.18"/><path class="cls-2" d="M116.35,96.74c-0.92-5.71-4.64-10.51-15.67-15-3.83-1.76-8.1-3-9.38-5.93a6.46,6.46,0,0,1-.23-3.67c0.82-3.32,4.78-4.36,7.93-3.4a8.72,8.72,0,0,1,5.09,4.72c5.4-3.5,5.39-3.47,9.16-5.88a23.41,23.41,0,0,0-3-4c-3.25-3.63-7.68-5.5-14.76-5.36l-3.69.48a16.73,16.73,0,0,0-8.88,5.24c-5.93,6.72-4.24,18.49,3,23.33,7.1,5.33,17.54,6.54,18.87,11.53,1.3,6.1-4.49,8.08-10.23,7.38-4.24-.88-6.59-3-9.14-6.95l-9.51,5.49c1.14,2.5,2.34,3.63,4.26,5.79,9.07,9.2,31.76,8.75,35.83-5.18A17.19,17.19,0,0,0,116.35,96.74ZM69.46,58.94H57.75c0,10.11,0,20.16,0,30.27,0,6.44.33,12.34-.71,14.15-1.71,3.56-6.15,3.12-8.17,2.43-2.06-1-3.11-2.45-4.32-4.49a6,6,0,0,0-.67-1.07l-9.52,5.83a18.81,18.81,0,0,0,6.9,7.9c4.46,2.68,10.46,3.5,16.73,2.06a14.78,14.78,0,0,0,9.45-7.4c2.67-4.92,2.09-10.86,2.07-17.44C69.52,80.44,69.46,69.71,69.46,58.94Z" transform="translate(-1.41 -1.41)"/></g></svg>