<svg id="java" xmlns="http://www.w3.org/2000/svg" viewBox="0 0 67.41 125.38"><defs><style>.cls-1{fill:#0074bd;}.cls-2{fill:#ea2d2e;}</style></defs><title>java</title><g id="original-wordmark"><path class="cls-1" d="M52.58,215.82s-3.28,1.91,2.34,2.56c6.81,0.78,10.3.67,17.8-.75a31.16,31.16,0,0,0,4.74,2.31c-16.84,7.21-38.1-.42-24.88-4.11h0Z" transform="translate(-30.3 -149.31)"/><path class="cls-1" d="M50.52,206.4s-3.68,2.73,1.95,3.31a69.5,69.5,0,0,0,23-1.1A10.15,10.15,0,0,0,79,210.77c-20.35,6-43,.47-28.46-4.37h0Z" transform="translate(-30.3 -149.31)"/><path class="cls-2" d="M67.87,190.43c4.15,4.78-1.09,9.07-1.09,9.07s10.53-5.44,5.7-12.25c-4.52-6.35-8-9.5,10.77-20.38,0,0-29.44,7.35-15.38,23.55h0Z" transform="translate(-30.3 -149.31)"/><path class="cls-1" d="M90.13,222.78s2.43,2-2.68,3.55c-9.72,2.94-40.44,3.83-49,.12-3.07-1.33,2.69-3.19,4.5-3.58a11.7,11.7,0,0,1,3-.33c-3.41-2.4-22.05,4.72-9.47,6.76,34.32,5.56,62.57-2.51,53.67-6.52h0Z" transform="translate(-30.3 -149.31)"/><path class="cls-1" d="M54.16,196.65s-15.63,3.71-5.53,5.06c4.26,0.57,12.76.44,20.68-.22,6.47-.54,13-1.7,13-1.7a27.56,27.56,0,0,0-3.93,2.1c-15.87,4.17-46.53,2.23-37.71-2a29.54,29.54,0,0,1,13.53-3.2h0Z" transform="translate(-30.3 -149.31)"/><path class="cls-1" d="M82.2,212.32c16.13-8.38,8.67-16.44,3.47-15.35a12.17,12.17,0,0,0-1.84.5,2.93,2.93,0,0,1,1.38-1.06c10.3-3.62,18.22,10.68-3.32,16.34a1.44,1.44,0,0,0,.32-0.42h0Z" transform="translate(-30.3 -149.31)"/><path class="cls-2" d="M72.47,149.31S81.41,158.25,64,172c-14,11-3.18,17.31,0,24.5-8.15-7.35-14.13-13.83-10.12-19.85,5.89-8.84,22.2-13.13,18.6-27.33h0Z" transform="translate(-30.3 -149.31)"/><path class="cls-1" d="M55.75,235c15.48,1,39.27-.55,39.83-7.88,0,0-1.08,2.78-12.8,5a127.23,127.23,0,0,1-39.19.6s2,1.64,12.16,2.29h0Z" transform="translate(-30.3 -149.31)"/><path class="cls-2" d="M94.87,248.18H94.39v-0.26h1.27v0.26H95.19v1.32H94.87v-1.32h0Zm2.54,0.07h0l-0.47,1.25H96.71l-0.46-1.25h0v1.25H95.93v-1.58h0.46L96.82,249l0.43-1.12H97.7v1.58H97.4v-1.25h0Z" transform="translate(-30.3 -149.31)"/><path class="cls-2" d="M53.21,263a7,7,0,0,1-4.39,2,2.8,2.8,0,0,1-3-3.08c0-2.05,1.15-3.56,5.74-3.56h1.7V263h0Zm4,4.55V253.51c0-3.6-2.05-6-7-6a18.46,18.46,0,0,0-7.47,1.62l0.59,2.49a17.37,17.37,0,0,1,5.77-1.15c2.85,0,4.08,1.15,4.08,3.52v1.78H51.79c-6.92,0-10,2.68-10,6.72,0,3.48,2.06,5.46,5.93,5.46a9,9,0,0,0,6.09-2.53l0.32,2.14h3.16Z" transform="translate(-30.3 -149.31)"/><path class="cls-2" d="M70.69,267.58h-5L59.62,247.9H64L67.76,260l0.83,3.63a75.82,75.82,0,0,0,3.91-15.73h4.27a79.89,79.89,0,0,1-6.09,19.69h0Z" transform="translate(-30.3 -149.31)"/><path class="cls-2" d="M90,263a7.06,7.06,0,0,1-4.39,2,2.8,2.8,0,0,1-3-3.08c0-2.05,1.15-3.56,5.74-3.56H90V263h0Zm4,4.55V253.51c0-3.6-2.06-6-7-6a18.46,18.46,0,0,0-7.47,1.62l0.59,2.49a17.38,17.38,0,0,1,5.77-1.15c2.85,0,4.07,1.15,4.07,3.52v1.78H88.56c-6.92,0-10,2.68-10,6.72,0,3.48,2.06,5.46,5.93,5.46a9,9,0,0,0,6.09-2.53l0.32,2.14H94Z" transform="translate(-30.3 -149.31)"/><path class="cls-2" d="M37.32,270.93a10.57,10.57,0,0,1-5,3.76l-2-2.34a8.36,8.36,0,0,0,3.49-3.27c0.53-1.06.75-2.43,0.75-5.7V240.89h4.28v22.17c0,4.38-.35,6.14-1.5,7.87h0Z" transform="translate(-30.3 -149.31)"/></g></svg>