<svg xmlns="http://www.w3.org/2000/svg" xmlns:xlink="http://www.w3.org/1999/xlink" viewBox="0 0 420 561.08"><defs><style>.cls-1{isolation:isolate;}.cls-2{fill:url(#radial-gradient);}.cls-3,.cls-45{opacity:0.6;}.cls-3{mix-blend-mode:multiply;}.cls-4{fill:#f9f9f9;}.cls-5{fill:#f8f8f8;}.cls-6{fill:#f7f7f7;}.cls-7{fill:#f6f6f6;}.cls-8{fill:#f5f5f5;}.cls-9{fill:#f4f4f4;}.cls-10{fill:#f3f3f3;}.cls-11{fill:#f2f2f2;}.cls-12{fill:#f1f1f1;}.cls-13{fill:#f0f0f0;}.cls-14{fill:#efefef;}.cls-15{fill:#eee;}.cls-16{fill:#ededed;}.cls-17{fill:#ececec;}.cls-18{fill:#ebebeb;}.cls-19{fill:#eaeaea;}.cls-20{fill:#e9e9e9;}.cls-21{fill:#e8e8e8;}.cls-22{fill:#e7e7e7;}.cls-23{fill:#e6e6e6;}.cls-24{fill:#e5e5e5;}.cls-25{fill:#e4e4e4;}.cls-26{fill:#e3e3e3;}.cls-27{fill:#e2e2e2;}.cls-28{fill:#e1e1e1;}.cls-29{fill:#e0e0e0;}.cls-30{fill:#dfdfdf;}.cls-31{fill:#dedede;}.cls-32{fill:#ddd;}.cls-33{fill:#dcdcdc;}.cls-34{fill:#dbdbdb;}.cls-35{fill:#dadada;}.cls-36{fill:#d9d9d9;}.cls-37{fill:#d8d8d8;}.cls-38{fill:#d7d7d7;}.cls-39{fill:#d6d6d6;}.cls-40{fill:#d5d5d5;}.cls-41{fill:#d4d4d4;}.cls-42{fill:#d3d3d3;}.cls-43{fill:#d2d2d2;}.cls-44{fill:#d1d1d1;}.cls-46{fill:#eaedee;}.cls-47{fill:#ccc;}.cls-48{fill:url(#linear-gradient);}.cls-49{fill:#593e46;}.cls-50{fill:url(#New_Gradient_Swatch_1073);}.cls-51{fill:#ac3434;}.cls-52{fill:url(#New_Gradient_Swatch_1073-2);}.cls-53{fill:url(#New_Gradient_Swatch_1168);}.cls-54{fill:url(#New_Gradient_Swatch_1168-2);}.cls-55{fill:url(#New_Gradient_Swatch_1168-3);}.cls-56{fill:url(#linear-gradient-2);}.cls-57{fill:url(#linear-gradient-3);}.cls-58{fill:url(#linear-gradient-4);}.cls-59{fill:url(#linear-gradient-5);}.cls-60{fill:url(#linear-gradient-6);}.cls-61{fill:url(#New_Gradient_Swatch_1073-3);}.cls-62{fill:url(#New_Gradient_Swatch_1073-4);}.cls-63{fill:url(#New_Gradient_Swatch_1073-5);}.cls-64{fill:url(#New_Gradient_Swatch_1073-6);}.cls-65{fill:url(#New_Gradient_Swatch_1073-7);}.cls-66,.cls-67{mix-blend-mode:lighten;}.cls-66{fill:url(#linear-gradient-7);}.cls-67{fill:url(#linear-gradient-8);}.cls-68,.cls-69,.cls-70,.cls-72,.cls-73,.cls-74,.cls-75,.cls-76,.cls-77,.cls-78{mix-blend-mode:screen;}.cls-68{fill:url(#New_Gradient_Swatch_1168-4);}.cls-69{fill:url(#New_Gradient_Swatch_1168-5);}.cls-70{fill:url(#New_Gradient_Swatch_1168-6);}.cls-71{fill:url(#New_Gradient_Swatch_1168-7);}.cls-72{fill:url(#New_Gradient_Swatch_1168-8);}.cls-73{fill:url(#New_Gradient_Swatch_1168-9);}.cls-74{fill:url(#New_Gradient_Swatch_1168-10);}.cls-75{fill:url(#New_Gradient_Swatch_1168-11);}.cls-76{fill:url(#New_Gradient_Swatch_1168-12);}.cls-77{fill:url(#New_Gradient_Swatch_1168-13);}.cls-78{fill:url(#New_Gradient_Swatch_1168-14);}.cls-79{fill:url(#linear-gradient-9);}.cls-80{fill:url(#linear-gradient-10);}.cls-81{fill:url(#linear-gradient-11);}.cls-82{fill:url(#linear-gradient-12);}.cls-83{fill:url(#linear-gradient-13);}.cls-84{fill:url(#linear-gradient-14);}.cls-85{fill:url(#linear-gradient-15);}.cls-86{fill:url(#linear-gradient-16);}.cls-87{fill:url(#New_Gradient_Swatch_1073-8);}.cls-88{fill:url(#New_Gradient_Swatch_1073-9);}.cls-89{fill:url(#New_Gradient_Swatch_1073-10);}.cls-90{fill:url(#New_Gradient_Swatch_1073-11);}.cls-91{fill:url(#New_Gradient_Swatch_1073-12);}.cls-92{fill:url(#New_Gradient_Swatch_1073-13);}.cls-93{fill:url(#New_Gradient_Swatch_1073-14);}.cls-94{fill:url(#New_Gradient_Swatch_1073-15);}.cls-95{fill:url(#New_Gradient_Swatch_1168-15);}.cls-96{fill:url(#New_Gradient_Swatch_1168-16);}.cls-97{fill:url(#New_Gradient_Swatch_1168-17);}.cls-98{fill:url(#New_Gradient_Swatch_1168-18);}.cls-99{fill:url(#New_Gradient_Swatch_1168-19);}.cls-100{fill:url(#New_Gradient_Swatch_1168-20);}.cls-101{fill:#fff;}</style><radialGradient id="radial-gradient" cx="209.09" cy="279.84" r="2932.08" gradientUnits="userSpaceOnUse"><stop offset="0" stop-color="#fff"/><stop offset="1"/></radialGradient><linearGradient id="linear-gradient" x1="194.1" y1="381.05" x2="615.58" y2="381.05" gradientUnits="userSpaceOnUse"><stop offset="0" stop-color="#f34c07"/><stop offset="1" stop-color="#f8a91f"/></linearGradient><linearGradient id="New_Gradient_Swatch_1073" x1="193.6" y1="436.73" x2="615.08" y2="436.73" gradientUnits="userSpaceOnUse"><stop offset="0" stop-color="#650e3d"/><stop offset="1" stop-color="#ee3b95"/></linearGradient><linearGradient id="New_Gradient_Swatch_1073-2" x1="508.65" y1="320.66" x2="571.11" y2="258.21" gradientTransform="matrix(0.96, -0.28, 0.28, 0.96, -69.59, 168.9)" xlink:href="#New_Gradient_Swatch_1073"/><linearGradient id="New_Gradient_Swatch_1168" x1="464.98" y1="342.62" x2="390.98" y2="380.62" gradientTransform="translate(-41.98 54.99) rotate(-7.09)" gradientUnits="userSpaceOnUse"><stop offset="0" stop-color="#7352a1"/><stop offset="1" stop-color="#40baec"/></linearGradient><linearGradient id="New_Gradient_Swatch_1168-2" x1="504.4" y1="260.97" x2="476.37" y2="275.36" gradientTransform="translate(-27.68 57.47) rotate(-6.57)" xlink:href="#New_Gradient_Swatch_1168"/><linearGradient id="New_Gradient_Swatch_1168-3" x1="571.12" y1="405.1" x2="544.07" y2="418.99" gradientTransform="translate(1091.45 -49.97) rotate(107.84)" xlink:href="#New_Gradient_Swatch_1168"/><linearGradient id="linear-gradient-2" x1="265.92" y1="370.7" x2="247.92" y2="303.84" xlink:href="#linear-gradient"/><linearGradient id="linear-gradient-3" x1="346.59" y1="399.77" x2="320.78" y2="303.88" xlink:href="#linear-gradient"/><linearGradient id="linear-gradient-4" x1="488.73" y1="299.92" x2="445.48" y2="139.27" xlink:href="#linear-gradient"/><linearGradient id="linear-gradient-5" x1="520.46" y1="372.45" x2="538.67" y2="372.45" gradientTransform="translate(-93.88 186.22) rotate(-18.46)" gradientUnits="userSpaceOnUse"><stop offset="0" stop-color="#10a7ee"/><stop offset="1" stop-color="#22cec9"/></linearGradient><linearGradient id="linear-gradient-6" x1="408.91" y1="245.33" x2="426.68" y2="239.4" gradientTransform="matrix(1, 0, 0, 1, 0, 0)" xlink:href="#linear-gradient-5"/><linearGradient id="New_Gradient_Swatch_1073-3" x1="507.82" y1="215.35" x2="531.54" y2="215.35" xlink:href="#New_Gradient_Swatch_1073"/><linearGradient id="New_Gradient_Swatch_1073-4" x1="516.33" y1="232.81" x2="551.28" y2="232.81" xlink:href="#New_Gradient_Swatch_1073"/><linearGradient id="New_Gradient_Swatch_1073-5" x1="229.69" y1="346.15" x2="303" y2="346.15" xlink:href="#New_Gradient_Swatch_1073"/><linearGradient id="New_Gradient_Swatch_1073-6" x1="268.28" y1="370.78" x2="305" y2="370.78" xlink:href="#New_Gradient_Swatch_1073"/><linearGradient id="New_Gradient_Swatch_1073-7" x1="345.38" y1="347.17" x2="365" y2="347.17" xlink:href="#New_Gradient_Swatch_1073"/><linearGradient id="linear-gradient-7" x1="325" y1="244" x2="391.67" y2="244" xlink:href="#linear-gradient"/><linearGradient id="linear-gradient-8" x1="243" y1="191.33" x2="289.67" y2="191.33" xlink:href="#linear-gradient"/><linearGradient id="New_Gradient_Swatch_1168-4" x1="160.34" y1="382.67" x2="244.33" y2="382.67" gradientTransform="matrix(1, 0, 0, 1, 0, 0)" xlink:href="#New_Gradient_Swatch_1168"/><linearGradient id="New_Gradient_Swatch_1168-5" x1="232.34" y1="415.33" x2="273.67" y2="415.33" gradientTransform="matrix(1, 0, 0, 1, 0, 0)" xlink:href="#New_Gradient_Swatch_1168"/><linearGradient id="New_Gradient_Swatch_1168-6" x1="168.34" y1="454.67" x2="192.33" y2="454.67" gradientTransform="matrix(1, 0, 0, 1, 0, 0)" xlink:href="#New_Gradient_Swatch_1168"/><linearGradient id="New_Gradient_Swatch_1168-7" x1="133.67" y1="419.33" x2="151" y2="419.33" gradientTransform="matrix(1, 0, 0, 1, 0, 0)" xlink:href="#New_Gradient_Swatch_1168"/><linearGradient id="New_Gradient_Swatch_1168-8" x1="150.34" y1="422.67" x2="174.33" y2="422.67" gradientTransform="matrix(1, 0, 0, 1, 0, 0)" xlink:href="#New_Gradient_Swatch_1168"/><linearGradient id="New_Gradient_Swatch_1168-9" x1="135.67" y1="206" x2="159.67" y2="206" gradientTransform="matrix(1, 0, 0, 1, 0, 0)" xlink:href="#New_Gradient_Swatch_1168"/><linearGradient id="New_Gradient_Swatch_1168-10" x1="167" y1="175.33" x2="213.66" y2="175.33" gradientTransform="matrix(1, 0, 0, 1, 0, 0)" xlink:href="#New_Gradient_Swatch_1168"/><linearGradient id="New_Gradient_Swatch_1168-11" x1="234.34" y1="146.67" x2="247.67" y2="146.67" gradientTransform="matrix(1, 0, 0, 1, 0, 0)" xlink:href="#New_Gradient_Swatch_1168"/><linearGradient id="New_Gradient_Swatch_1168-12" x1="147" y1="160.67" x2="160.33" y2="160.67" gradientTransform="matrix(1, 0, 0, 1, 0, 0)" xlink:href="#New_Gradient_Swatch_1168"/><linearGradient id="New_Gradient_Swatch_1168-13" x1="170.34" y1="130.67" x2="191.67" y2="130.67" gradientTransform="matrix(1, 0, 0, 1, 0, 0)" xlink:href="#New_Gradient_Swatch_1168"/><linearGradient id="New_Gradient_Swatch_1168-14" x1="309" y1="146.67" x2="330.33" y2="146.67" gradientTransform="matrix(1, 0, 0, 1, 0, 0)" xlink:href="#New_Gradient_Swatch_1168"/><linearGradient id="linear-gradient-9" x1="271" y1="326.67" x2="283" y2="326.67" xlink:href="#linear-gradient"/><linearGradient id="linear-gradient-10" x1="330.33" y1="378" x2="339.67" y2="378" xlink:href="#linear-gradient"/><linearGradient id="linear-gradient-11" x1="331.67" y1="393.33" x2="345" y2="393.33" xlink:href="#linear-gradient"/><linearGradient id="linear-gradient-12" x1="347.67" y1="378" x2="357" y2="378" xlink:href="#linear-gradient"/><linearGradient id="linear-gradient-13" x1="336.33" y1="426" x2="353.67" y2="426" xlink:href="#linear-gradient"/><linearGradient id="linear-gradient-14" x1="293.67" y1="159.33" x2="305.67" y2="159.33" xlink:href="#linear-gradient"/><linearGradient id="linear-gradient-15" x1="273.67" y1="153.33" x2="288.33" y2="153.33" xlink:href="#linear-gradient"/><linearGradient id="linear-gradient-16" x1="283.67" y1="134.67" x2="297" y2="134.67" xlink:href="#linear-gradient"/><linearGradient id="New_Gradient_Swatch_1073-8" x1="362.33" y1="208" x2="375.67" y2="208" xlink:href="#New_Gradient_Swatch_1073"/><linearGradient id="New_Gradient_Swatch_1073-9" x1="359" y1="192.67" x2="364.33" y2="192.67" xlink:href="#New_Gradient_Swatch_1073"/><linearGradient id="New_Gradient_Swatch_1073-10" x1="383" y1="192" x2="389.67" y2="192" xlink:href="#New_Gradient_Swatch_1073"/><linearGradient id="New_Gradient_Swatch_1073-11" x1="48.33" y1="338.67" x2="59" y2="338.67" xlink:href="#New_Gradient_Swatch_1073"/><linearGradient id="New_Gradient_Swatch_1073-12" x1="48.33" y1="360" x2="68.33" y2="360" xlink:href="#New_Gradient_Swatch_1073"/><linearGradient id="New_Gradient_Swatch_1073-13" x1="16.33" y1="354" x2="28.33" y2="354" xlink:href="#New_Gradient_Swatch_1073"/><linearGradient id="New_Gradient_Swatch_1073-14" x1="19.67" y1="372.67" x2="26.33" y2="372.67" xlink:href="#New_Gradient_Swatch_1073"/><linearGradient id="New_Gradient_Swatch_1073-15" x1="32.33" y1="358.67" x2="39" y2="358.67" xlink:href="#New_Gradient_Swatch_1073"/><linearGradient id="New_Gradient_Swatch_1168-15" x1="193" y1="208.67" x2="202.33" y2="208.67" gradientTransform="matrix(1, 0, 0, 1, 0, 0)" xlink:href="#New_Gradient_Swatch_1168"/><linearGradient id="New_Gradient_Swatch_1168-16" x1="201.67" y1="196.67" x2="205.67" y2="196.67" gradientTransform="matrix(1, 0, 0, 1, 0, 0)" xlink:href="#New_Gradient_Swatch_1168"/><linearGradient id="New_Gradient_Swatch_1168-17" x1="196.33" y1="180.67" x2="209.67" y2="180.67" gradientTransform="matrix(1, 0, 0, 1, 0, 0)" xlink:href="#New_Gradient_Swatch_1168"/><linearGradient id="New_Gradient_Swatch_1168-18" x1="161" y1="364.67" x2="174.33" y2="364.67" gradientTransform="matrix(1, 0, 0, 1, 0, 0)" xlink:href="#New_Gradient_Swatch_1168"/><linearGradient id="New_Gradient_Swatch_1168-19" x1="176.33" y1="379.33" x2="183" y2="379.33" gradientTransform="matrix(1, 0, 0, 1, 0, 0)" xlink:href="#New_Gradient_Swatch_1168"/><linearGradient id="New_Gradient_Swatch_1168-20" x1="207" y1="393.33" x2="227" y2="393.33" gradientTransform="matrix(1, 0, 0, 1, 0, 0)" xlink:href="#New_Gradient_Swatch_1168"/></defs><title>background</title><g class="cls-1"><g id="Layer_3" data-name="Layer 3"><rect class="cls-2" width="420" height="561.08"/></g><g id="Layer_7" data-name="Layer 7"><g class="cls-3"><path class="cls-4" d="M264.26,110.44A679.35,679.35,0,0,1,249.88,27h-1a680.83,680.83,0,0,0,14.41,83.67c18.54,76.24,54.33,150,123.64,159.82l0.14-1C318.49,259.87,282.77,186.6,264.26,110.44Z" transform="translate(-196 -27)"/><path class="cls-5" d="M299.42,205.43C268.25,154.94,253.76,83.51,247,27h-1c6.73,56.6,21.25,128.2,52.56,179,20.95,33.95,49.59,59.19,87.69,64.56l0.14-1C348.68,264.21,320.29,239.23,299.42,205.43Z" transform="translate(-196 -27)"/><path class="cls-6" d="M298.92,206.88c-30.07-46.69-45.35-112.52-53.09-166.66-0.64-4.51-1.22-8.9-1.77-13.23h-1c7.09,56.39,22.31,129.57,55,180.43,21.26,33,50.18,57.84,87.52,63.11l0.14-1C348.77,264.34,320.09,239.76,298.92,206.88Z" transform="translate(-196 -27)"/><path class="cls-6" d="M298.41,208.34C268,163.09,252,98.6,243.65,45.44Q242.16,35.94,241,27h-1c7.43,56.07,23.39,131,57.6,181.9,21.57,32.1,50.76,56.5,87.35,61.65l0.14-1C348.86,264.46,319.89,240.3,298.41,208.34Z" transform="translate(-196 -27)"/><path class="cls-7" d="M297.91,209.8c-30.76-43.81-47.45-107-56.42-159.14-1.41-8.21-2.62-16.12-3.67-23.66h-1c7.76,55.61,24.51,132.38,60.29,183.38,21.9,31.19,51.35,55.15,87.17,60.2l0.14-1C349,264.59,319.71,240.86,297.91,209.8Z" transform="translate(-196 -27)"/><path class="cls-8" d="M297.4,211.26c-31.09-42.36-48.48-104.16-58.07-155.37-1.9-10.12-3.48-19.83-4.82-28.89h-1c8.08,55,25.65,133.8,63.09,184.85,22.23,30.29,51.94,53.8,87,58.74l0.14-1C349,264.72,319.53,241.41,297.4,211.26Z" transform="translate(-196 -27)"/><path class="cls-9" d="M296.89,212.71c-31.41-40.9-49.5-101.37-59.71-151.6C234.72,49,232.72,37.5,231.09,27h-1c8.36,54.13,26.81,135.23,66,186.32,22.57,29.4,52.53,52.45,86.83,57.29l0.14-1C349.13,264.84,319.36,242,296.89,212.71Z" transform="translate(-196 -27)"/><path class="cls-9" d="M296.39,214.17C264.68,174.73,245.88,115.6,235,66.35c-3.12-14.18-5.58-27.51-7.5-39.35h-1c8.61,53,28,136.66,69.08,187.8,22.92,28.51,53.11,51.1,86.65,55.83l0.14-1C349.22,265,319.2,242.56,296.39,214.17Z" transform="translate(-196 -27)"/><path class="cls-10" d="M295.88,215.63c-32-38-51.5-95.76-63-144C229,55.25,226.07,40,223.85,27h-1c8.78,51.57,29.18,138.09,72.28,189.27,23.28,27.63,53.7,49.75,86.48,54.38l0.14-1C349.31,265.1,319.06,243.14,295.88,215.63Z" transform="translate(-196 -27)"/><path class="cls-11" d="M295.37,217.09c-32.27-36.5-52.47-93-64.57-140.26C226,58.21,222.53,41,220,27h-1c8.86,49.67,30.35,139.5,75.62,190.75,23.65,26.76,54.28,48.4,86.31,52.92l0.14-1C349.4,265.22,318.92,243.73,295.37,217.09Z" transform="translate(-196 -27)"/><path class="cls-12" d="M294.86,218.54c-32.52-35-53.43-90.14-66.17-136.48C222.9,61,218.79,41.74,216,27h-1c8.8,47.14,31.46,140.85,79.11,192.22,24,25.89,54.87,47.05,86.13,51.47l0.14-1C349.49,265.35,318.79,244.33,294.86,218.54Z" transform="translate(-196 -27)"/><path class="cls-13" d="M294.36,220C261.6,186.44,240,132.67,226.61,87.31c-6.69-22.68-11.33-43.27-14.3-58.18L211.89,27h-1c8.53,43.71,32.47,142.12,82.77,193.7,24.43,25,55.45,45.71,86,50l0.14-1C349.58,265.48,318.68,244.94,294.36,220Z" transform="translate(-196 -27)"/><path class="cls-13" d="M224.53,92.55c-7-22.2-12-42.39-15.16-57q-1-4.67-1.8-8.52h-1c7.88,38.84,33.22,143.18,86.6,195.18,24.84,24.18,56,44.35,85.78,48.55l0.14-1c-29.4-4.14-60.48-24.19-85.22-48.28C260.87,189.37,238.56,136.94,224.53,92.55Z" transform="translate(-196 -27)"/><path class="cls-14" d="M222.47,97.79c-7.34-21.71-12.61-41.51-16-55.87-1.44-6-2.55-11.06-3.35-14.91h-1c6.55,31.23,33.42,143.81,90.6,196.65,25.27,23.33,56.62,43,85.6,47.1l0.14-1c-28.64-4-59.9-23.6-85.07-46.84C260.17,192.3,237.15,141.21,222.47,97.79Z" transform="translate(-196 -27)"/><path class="cls-15" d="M220.43,103c-7.67-21.23-13.26-40.63-16.92-54.72-2.76-10.61-4.43-18.19-5.08-21.3h-1c3.08,14.56,31.5,142.75,94.77,198.13,25.71,22.48,57.21,41.66,85.43,45.64l0.14-1c-27.89-3.92-59.3-23-84.91-45.41C259.49,195.22,235.77,145.48,220.43,103Z" transform="translate(-196 -27)"/><path class="cls-16" d="M292.32,225.83c-33.49-27.69-57.91-76.1-73.91-117.58-8-20.74-13.91-39.75-17.82-53.56-2.11-7.48-3.63-13.42-4.59-17.3v4.09C204.05,73,234.6,179.35,291.68,226.6c26.16,21.63,57.79,40.31,85.25,44.19l0.14-1C349.94,266,318.38,247.4,292.32,225.83Z" transform="translate(-196 -27)"/><path class="cls-17" d="M291.81,227.29c-33.62-26.24-58.74-73.3-75.41-113.81-8.34-20.25-14.57-38.86-18.72-52.41-0.61-2-1.16-3.83-1.67-5.57V59c11.94,39.61,43.4,128.61,95.19,169.09,26.63,20.79,58.37,39,85.07,42.73l0.14-1C350,266.11,318.35,248,291.81,227.29Z" transform="translate(-196 -27)"/><path class="cls-17" d="M291.29,228.75c-33.72-24.79-59.54-70.52-76.89-110-7.9-18-14-34.7-18.4-47.57v3.09c14.41,41.92,46.36,119.73,94.7,155.33,27.12,19.94,59,37.61,84.89,41.28l0.14-1C350.11,266.23,318.33,248.64,291.29,228.75Z" transform="translate(-196 -27)"/><path class="cls-18" d="M290.78,230.2c-33.8-23.36-60.32-67.74-78.35-106.29C205.78,109.7,200.29,96.3,196,85v2.79C212.27,130,244.51,199.39,290.21,231c27.62,19.09,59.54,36.27,84.72,39.82l0.14-1C350.2,266.36,318.32,249.25,290.78,230.2Z" transform="translate(-196 -27)"/><path class="cls-19" d="M290.27,231.66c-33.85-21.94-61.08-65-79.8-102.55-5.6-11.25-10.43-22-14.47-31.52v2.56c17.76,41.55,50.16,104.08,93.73,132.35,28.14,18.24,60.12,34.92,84.54,38.37l0.14-1C350.29,266.49,318.34,249.87,290.27,231.66Z" transform="translate(-196 -27)"/><path class="cls-20" d="M289.76,233.12c-33.89-20.53-61.82-62.24-81.23-98.82-4.69-8.83-8.87-17.34-12.53-25.2v2.36c19,40.39,51.51,97.19,93.24,122.52,28.67,17.38,60.7,33.57,84.36,36.91l0.14-1C350.38,266.61,318.37,250.47,289.76,233.12Z" transform="translate(-196 -27)"/><path class="cls-20" d="M289.25,234.58c-33.9-19.14-62.53-59.51-82.64-95.1-3.86-6.83-7.39-13.47-10.6-19.76v2.21c20.06,39,52.62,90.82,92.75,113.53C318,252,350,267.67,372.93,270.91l0.14-1C350.47,266.74,318.42,251.07,289.25,234.58Z" transform="translate(-196 -27)"/><path class="cls-21" d="M288.73,236c-33.89-17.78-63.23-56.8-84-91.4-3.09-5.14-6-10.17-8.69-15v2.06c21,37.4,53.55,84.91,92.27,105.26,29.79,15.63,61.87,30.88,84,34l0.14-1C350.56,266.86,318.48,251.65,288.73,236Z" transform="translate(-196 -27)"/><path class="cls-22" d="M288.22,237.49c-33.86-16.42-63.9-54.11-85.42-87.7-2.38-3.71-4.63-7.35-6.79-10.93v1.94c21.8,35.76,54.35,79.4,91.78,97.6,30.37,14.73,62.45,29.53,83.82,32.55l0.14-1C350.64,267,318.56,252.23,288.22,237.49Z" transform="translate(-196 -27)"/><path class="cls-23" d="M287.7,239c-33.82-15.1-64.56-51.45-86.79-84-1.69-2.48-3.32-4.92-4.91-7.35v1.82c22.52,34.09,55,74.24,91.29,90.47,31,13.83,63,28.19,83.63,31.1l0.14-1C350.73,267.12,318.65,252.79,287.7,239Z" transform="translate(-196 -27)"/><path class="cls-24" d="M287.19,240.42C253.42,226.63,222,191.61,199,160c-1-1.42-2-2.83-3-4.24v1.74c23.17,32.41,55.62,69.4,90.81,83.81,31.58,12.9,63.61,26.84,83.45,29.64l0.14-1C350.82,267.24,318.76,253.33,287.19,240.42Z" transform="translate(-196 -27)"/><path class="cls-24" d="M286.67,241.88c-33.69-12.51-65.84-46.18-89.5-76.74L196,163.61v1.64c23.76,30.75,56.13,64.83,90.32,77.56,32.2,12,64.19,25.49,83.27,28.19l0.14-1C350.91,267.37,318.88,253.84,286.67,241.88Z" transform="translate(-196 -27)"/><path class="cls-25" d="M286.16,243.34c-33.3-11.15-65.84-43-90.16-72.29v1.56c24.29,29.11,56.57,60.51,89.84,71.68,32.83,11,64.77,24.15,83.09,26.74l0.14-1C351,267.49,319,254.34,286.16,243.34Z" transform="translate(-196 -27)"/><path class="cls-26" d="M285.64,244.8c-32.41-9.68-64.83-39-89.64-66.67v1.51c24.77,27.51,57,56.41,89.35,66.12,33.46,10,65.34,22.8,82.91,25.29l0.14-1C351.09,267.62,319.14,254.82,285.64,244.8Z" transform="translate(-196 -27)"/><path class="cls-27" d="M285.13,246.26C253.55,237.94,221.26,211,196,184.91v1.44c25.21,25.93,57.29,52.52,88.87,60.87,34.11,9,65.92,21.46,82.73,23.84l0.14-1C351.18,267.75,319.28,255.27,285.13,246.26Z" transform="translate(-196 -27)"/><path class="cls-28" d="M284.61,247.72c-30.78-7-62.94-31.74-88.61-56.29v1.38c25.61,24.4,57.57,48.81,88.39,55.89,34.75,8,66.5,20.12,82.54,22.39l0.14-1C351.27,267.87,319.42,255.7,284.61,247.72Z" transform="translate(-196 -27)"/><path class="cls-28" d="M284.09,249.19c-30-5.84-62.06-28.45-88.09-51.5V199c26,22.89,57.81,45.26,87.9,51.14,35.4,6.89,67.08,18.77,82.36,20.94l0.14-1C351.36,268,319.57,256.09,284.09,249.19Z" transform="translate(-196 -27)"/><path class="cls-29" d="M283.58,250.65c-29.35-4.71-61.21-25.37-87.58-46.93V205c26.31,21.43,58,41.87,87.42,46.62,36,5.8,67.65,17.43,82.18,19.49l0.14-1C351.45,268.12,319.71,256.46,283.58,250.65Z" transform="translate(-196 -27)"/><path class="cls-30" d="M283.06,252.11c-28.69-3.65-60.39-22.45-87.06-42.57v1.26c26.61,20,58.16,38.62,86.94,42.31,36.69,4.68,68.23,16.09,82,18l0.14-1C351.54,268.25,319.85,256.8,283.06,252.11Z" transform="translate(-196 -27)"/><path class="cls-31" d="M282.55,253.58c-28.07-2.65-59.6-19.69-86.55-38.41v1.22c26.88,18.61,58.28,35.5,86.45,38.18,37.33,3.53,68.81,14.75,81.81,16.59l0.14-1C351.63,268.38,320,257.12,282.55,253.58Z" transform="translate(-196 -27)"/><path class="cls-31" d="M282,255c-27.48-1.69-58.85-17.07-86-34.42v1.19c27.13,17.25,58.37,32.5,86,34.23,38,2.35,69.38,13.41,81.63,15.14l0.14-1C351.72,268.5,320.11,257.4,282,255Z" transform="translate(-196 -27)"/><path class="cls-32" d="M281.51,256.51c-26.93-.79-58.12-14.59-85.51-30.6v1.16c27.35,15.93,58.43,29.62,85.48,30.44,38.58,1.15,70,12.07,81.45,13.69l0.14-1C351.81,268.63,320.23,257.66,281.51,256.51Z" transform="translate(-196 -27)"/><path class="cls-33" d="M281.44,258h-0.62C254.45,258,223.53,245.72,196,231v1.13c27.48,14.61,58.32,26.78,84.82,26.8h0.62c39,0,70.14,10.73,80.83,12.25l0.14-1C351.94,268.76,320.56,258,281.44,258Z" transform="translate(-196 -27)"/><path class="cls-34" d="M287.39,259.32q-3.41,0-6.9.11-1.47,0-3,0C252.24,259.49,222.7,249,196,236v1.11c26.66,12.88,56.12,23.34,81.52,23.36,1,0,2,0,3,0q3.48-.12,6.87-0.12c36.5,0,64.82,9.58,74.21,10.92l0.14-1C352.56,269,324,259.32,287.39,259.32Z" transform="translate(-196 -27)"/><path class="cls-35" d="M292.81,260.49c-4.16,0-8.45.13-12.84,0.41q-2.92.18-5.93,0.18c-24.2,0-52.28-8.94-78-20.23V242c25.72,11.23,53.74,20.12,78,20.14q3,0,6-.19c4.37-.28,8.63-0.41,12.77-0.41,34.12,0,59.9,8.6,68.12,9.77l0.14-1C353.06,269.15,327.05,260.49,292.81,260.49Z" transform="translate(-196 -27)"/><path class="cls-35" d="M297.72,261.51c-5.83,0-11.93.26-18.27,0.86q-4.46.42-9.12,0.42c-23.09,0-49.64-7.5-74.33-17.2v1.07c24.65,9.67,51.16,17.12,74.33,17.13q4.71,0,9.22-.42c6.3-.6,12.37-0.86,18.17-0.86,31.88,0,55.38,7.75,62.55,8.77l0.14-1C353.45,269.31,329.71,261.51,297.72,261.51Z" transform="translate(-196 -27)"/><path class="cls-36" d="M302.14,262.4a185.06,185.06,0,0,0-23.2,1.45,100.84,100.84,0,0,1-12.6.75c-21.93,0-46.86-6.18-70.34-14.4v1.06c23.44,8.19,48.34,14.34,70.34,14.35a102.2,102.2,0,0,0,12.72-.76,184.59,184.59,0,0,1,23.08-1.44c29.78,0,51.25,7,57.46,7.9l0.14-1C353.74,269.47,332,262.39,302.14,262.4Z" transform="translate(-196 -27)"/><path class="cls-37" d="M306.1,263.17a179.22,179.22,0,0,0-27.68,2.14A106.48,106.48,0,0,1,262,266.5c-20.68,0-43.9-5-66-11.83v1c22.08,6.81,45.28,11.77,66,11.78a107.56,107.56,0,0,0,16.56-1.2,178.1,178.1,0,0,1,27.53-2.13c27.84,0,47.49,6.39,52.83,7.15l0.14-1C353.95,269.61,334,263.17,306.1,263.17Z" transform="translate(-196 -27)"/><path class="cls-38" d="M309.65,263.85a173.23,173.23,0,0,0-31.74,2.93,113.16,113.16,0,0,1-20.61,1.75c-19.33,0-40.72-3.92-61.3-9.47v1c20.55,5.52,41.92,9.43,61.3,9.44a114.2,114.2,0,0,0,20.79-1.77,172.43,172.43,0,0,1,31.56-2.91c26,0,44.06,5.84,48.61,6.48l0.14-1C354.07,269.74,335.8,263.85,309.65,263.85Z" transform="translate(-196 -27)"/><path class="cls-39" d="M312.83,264.46a168,168,0,0,0-35.44,3.79,120.68,120.68,0,0,1-25.28,2.44c-17.83,0-37.25-3-56.11-7.35v1c18.84,4.34,38.25,7.32,56.11,7.33a121.89,121.89,0,0,0,25.49-2.46,166.81,166.81,0,0,1,35.23-3.77c24.39,0,40.94,5.35,44.76,5.9l0.14-1C354.13,269.86,337.32,264.45,312.83,264.46Z" transform="translate(-196 -27)"/><path class="cls-39" d="M315.67,265a162.8,162.8,0,0,0-38.79,4.72A129.43,129.43,0,0,1,246.37,273c-16.14,0-33.44-2.18-50.37-5.47v1c16.91,3.28,34.21,5.45,50.37,5.46a130.38,130.38,0,0,0,30.74-3.29A161.87,161.87,0,0,1,315.67,266c22.88,0,38.09,4.93,41.26,5.38l0.14-1C354.13,270,338.64,265,315.67,265Z" transform="translate(-196 -27)"/><path class="cls-40" d="M318.22,265.48a158.24,158.24,0,0,0-41.85,5.71c-11,3-23.34,4.25-36.37,4.25a284.53,284.53,0,0,1-44-3.84v1a285.72,285.72,0,0,0,44,3.83c13.1,0,25.57-1.26,36.64-4.29a157.31,157.31,0,0,1,41.59-5.67c21.48,0,35.48,4.55,38,4.92l0.14-1C354.08,270.08,339.78,265.47,318.22,265.48Z" transform="translate(-196 -27)"/><path class="cls-41" d="M320.5,265.92a154.06,154.06,0,0,0-44.65,6.74c-12.74,3.85-27.49,5.41-43,5.41A302.15,302.15,0,0,1,196,275.59v1a303.28,303.28,0,0,0,36.86,2.47c15.58,0,30.41-1.57,43.29-5.46a153,153,0,0,1,44.36-6.7,138.2,138.2,0,0,1,35.09,4.5l0.14-1A138.4,138.4,0,0,0,320.5,265.92Z" transform="translate(-196 -27)"/><path class="cls-42" d="M322.55,266.32a150.21,150.21,0,0,0-47.21,7.81c-14.72,4.86-32.19,6.77-50.49,6.77-9.49,0-19.19-.52-28.85-1.4v1c9.66,0.87,19.36,1.39,28.85,1.39,18.37,0,35.94-1.91,50.8-6.82a149.2,149.2,0,0,1,46.89-7.76,124,124,0,0,1,32.38,4.12l0.14-1A124.45,124.45,0,0,0,322.55,266.32Z" transform="translate(-196 -27)"/><path class="cls-42" d="M324.4,266.68a146.77,146.77,0,0,0-49.57,8.91c-16.91,6.06-37.56,8.34-59,8.34-6.57,0-13.21-.23-19.84-0.61v1c6.63,0.38,13.27.6,19.84,0.6,21.5,0,42.25-2.28,59.33-8.39a145.7,145.7,0,0,1,49.23-8.86,111,111,0,0,1,29.86,3.77l0.14-1A111.5,111.5,0,0,0,324.4,266.68Z" transform="translate(-196 -27)"/><path class="cls-43" d="M326.07,267a143.61,143.61,0,0,0-51.75,10c-19.35,7.47-43.74,10.15-68.66,10.15-3.21,0-6.44-.05-9.66-0.14v1c3.22,0.08,6.45.14,9.66,0.14,25,0,49.48-2.68,69-10.21a142.57,142.57,0,0,1,51.39-10c16.86,0,27,3.37,27.53,3.46l0.14-1C353.46,270.45,343,267,326.07,267Z" transform="translate(-196 -27)"/><path class="cls-44" d="M327.58,267.33c-13.8,0-32.39,2.37-53.77,11.2-21.62,8.93-49.66,12.08-77.81,12.21v1c28.23-.13,56.36-3.27,78.19-12.28,21.25-8.78,39.71-11.13,53.4-11.13a104.68,104.68,0,0,1,18.59,1.58,54.91,54.91,0,0,1,6.67,1.57l0.32-.95S343.56,267.33,327.58,267.33Z" transform="translate(-196 -27)"/></g><g class="cls-45"><path class="cls-44" d="M616,586.79C493.76,539,469.23,458.72,469.2,401.68A207.66,207.66,0,0,1,474.84,354a146.9,146.9,0,0,1,5.63-18.77l-0.93-.37h0S468.2,362.9,468.2,401.68c0,57.39,24.9,138.29,147.8,186.19v-1.08Z" transform="translate(-196 -27)"/><path class="cls-43" d="M616,582.26c-121.92-46.79-146.08-126.68-146.11-183a204.61,204.61,0,0,1,5.32-46.1,142.43,142.43,0,0,1,5.31-18.1l-0.93-.37h0s-10.7,27.07-10.7,64.56c0,56.66,24.53,137.22,147.11,184.08v-1.08Z" transform="translate(-196 -27)"/><path class="cls-43" d="M616,577.73C494.38,532,470.59,452.42,470.57,396.84a201.59,201.59,0,0,1,5-44.46,140.17,140.17,0,0,1,5-17.43l-0.93-.36h0s-10.08,26.05-10.08,62.25c0,55.92,24.15,136.16,146.44,182v-1.07Z" transform="translate(-196 -27)"/><path class="cls-42" d="M616,573.21c-121.34-44.69-144.74-124-144.77-178.8a198.64,198.64,0,0,1,4.71-42.83,136.08,136.08,0,0,1,4.7-16.76l-0.93-.35h0s-9.48,25-9.48,59.94C470.2,449.58,494,529.53,616,574.28v-1.07Z" transform="translate(-196 -27)"/><path class="cls-42" d="M616,568.71C494.92,525.07,471.91,446.07,471.88,392a195.48,195.48,0,0,1,4.41-41.2,132.58,132.58,0,0,1,4.41-16.09l-0.94-.35h0s-8.89,24-8.89,57.63c0,54.41,23.38,134.09,145.12,177.78v-1.07Z" transform="translate(-196 -27)"/><path class="cls-41" d="M616,564.21C495.15,521.64,472.54,442.88,472.51,389.57A192.26,192.26,0,0,1,476.64,350a130,130,0,0,1,4.12-15.42l-0.94-.34h0s-8.31,23-8.31,55.33c0,53.64,23,133.08,144.49,175.71v-1.07Z" transform="translate(-196 -27)"/><path class="cls-40" d="M616,559.72c-120.64-41.5-142.83-120-142.87-172.58A189.41,189.41,0,0,1,477,349.22a126,126,0,0,1,3.84-14.76l-0.94-.33h0s-7.74,22-7.75,53C472.1,440,494.71,519.23,616,560.79v-1.06Z" transform="translate(-196 -27)"/><path class="cls-40" d="M616,555.25C495.55,514.83,473.78,436.46,473.74,384.72a186.26,186.26,0,0,1,3.57-36.29,122.65,122.65,0,0,1,3.57-14.09l-0.95-.32s-7.2,21-7.2,50.71c0,52.06,22.15,131.12,143.26,171.58v-1.06Z" transform="translate(-196 -27)"/><path class="cls-39" d="M616,550.79C495.71,511.45,474.37,433.23,474.34,382.3a182.77,182.77,0,0,1,3.31-34.66,118.59,118.59,0,0,1,3.3-13.42L480,333.9h0s-6.66,20-6.66,48.4c0,51.24,21.72,130.16,142.67,169.54v-1.05Z" transform="translate(-196 -27)"/><path class="cls-38" d="M616,546.34C495.84,508.09,474.95,430,474.91,379.88a179.69,179.69,0,0,1,3.05-33,115.79,115.79,0,0,1,3-12.76l-1-.31s-6.14,19-6.14,46.09c0,50.41,21.28,129.22,142.09,167.51v-1.05Z" transform="translate(-196 -27)"/><path class="cls-38" d="M616,541.9C495.94,504.75,475.5,426.71,475.47,377.46a176.31,176.31,0,0,1,2.8-31.4,112.09,112.09,0,0,1,2.8-12.1l-1-.3h0s-5.64,18-5.64,43.79c0,49.55,20.82,128.3,141.53,165.48v-1Z" transform="translate(-196 -27)"/><path class="cls-37" d="M616,537.47c-120-36-139.95-114.06-140-162.42a172.61,172.61,0,0,1,2.56-29.76,108.27,108.27,0,0,1,2.55-11.44l-1-.29S475,350.51,475,375.05c0,48.66,20.35,127.4,141,163.47v-1Z" transform="translate(-196 -27)"/><path class="cls-37" d="M616,533.05c-119.94-34.91-139.43-113-139.46-160.41a169,169,0,0,1,2.33-28.14,104.62,104.62,0,0,1,2.32-10.78l-1-.28s-4.69,15.95-4.69,39.2c0,47.75,19.87,126.52,140.46,161.46v-1Z" transform="translate(-196 -27)"/><path class="cls-36" d="M616,528.64C496.08,494.86,477.08,416.75,477,370.24a165.87,165.87,0,0,1,2.1-26.51,101.14,101.14,0,0,1,2.1-10.12l-1-.27h0s-4.24,15-4.24,36.9c0,46.81,19.38,125.64,140,159.45v-1Z" transform="translate(-196 -27)"/><path class="cls-35" d="M616,524.25C496.05,491.61,477.57,413.38,477.53,367.84A162.19,162.19,0,0,1,479.42,343c0.95-6,1.89-9.46,1.89-9.47l-1-.26h0s-3.81,14-3.81,34.62c0,45.83,18.87,124.79,139.47,157.46v-1Z" transform="translate(-196 -27)"/><path class="cls-35" d="M616,519.86C496,488.38,478,410,478,365.45a158.13,158.13,0,0,1,1.69-23.27c0.84-5.62,1.68-8.81,1.68-8.82l-1-.25s-3.4,13-3.4,32.34c0,44.8,18.34,124,139,155.46v-1Z" transform="translate(-196 -27)"/><path class="cls-34" d="M616,515.5c-120.12-30.31-137.51-109-137.56-152.43a154.27,154.27,0,0,1,1.49-21.65c0.75-5.22,1.49-8.17,1.49-8.18l-1-.24s-3,12-3,30.07c0,43.73,17.79,123.14,138.56,153.47v-1Z" transform="translate(-196 -27)"/><path class="cls-33" d="M616,511.15C495.73,482,478.91,403,478.87,360.7a131.19,131.19,0,0,1,2.62-27.58l-1-.23h0s-2.65,11.06-2.65,27.82c0,42.61,17.22,122.34,138.13,151.48v-1Z" transform="translate(-196 -27)"/><path class="cls-33" d="M616,506.81c-120.46-27.93-136.68-107.3-136.73-148.46A126.49,126.49,0,0,1,481.54,333l-1-.22h0a126.78,126.78,0,0,0-2.3,25.58c0,41.42,16.61,121.56,137.73,149.49v-1Z" transform="translate(-196 -27)"/><path class="cls-32" d="M616,502.48C495.29,475.77,479.7,395.92,479.65,356a121.75,121.75,0,0,1,2-23.14l-1-.21h0a122.11,122.11,0,0,0-2,23.35c0,40.17,16,120.78,137.35,147.5v-1Z" transform="translate(-196 -27)"/><path class="cls-32" d="M616,498.17C495,472.7,480.06,392.28,480,353.7a116.72,116.72,0,0,1,1.66-21l-1-.2h0A117.1,117.1,0,0,0,479,353.7c0,38.83,15.32,120,137,145.5v-1Z" transform="translate(-196 -27)"/><path class="cls-31" d="M616,493.88C494.62,469.66,480.39,388.57,480.34,351.42a111.41,111.41,0,0,1,1.38-18.8l-1-.19a111.51,111.51,0,0,0-1.4,19C479.29,388.81,494,470.69,616,494.91v-1Z" transform="translate(-196 -27)"/><path class="cls-30" d="M616,489.61C494.18,466.67,480.7,384.79,480.65,349.17a106,106,0,0,1,1.14-16.67l-1-.17h0a106.31,106.31,0,0,0-1.15,16.85C479.6,385,493.53,467.7,616,490.63v-1Z" transform="translate(-196 -27)"/><path class="cls-30" d="M616,485.35C493.69,463.72,481,380.92,480.93,347a100.23,100.23,0,0,1,.91-14.59l-1-.16h0a100,100,0,0,0-.93,14.76C479.88,381.15,493,464.75,616,486.37v-1Z" transform="translate(-196 -27)"/><path class="cls-29" d="M616,481.1C493.11,460.81,481.24,377,481.19,344.82a93.85,93.85,0,0,1,.71-12.57l-1-.15a93.93,93.93,0,0,0-.73,12.71c-0.05,32.37,12.27,117,135.81,137.31v-1Z" transform="translate(-196 -27)"/><path class="cls-29" d="M616,476.88c-123.54-18.93-134.52-104-134.58-134.15a87.23,87.23,0,0,1,.54-10.6l-1-.14a88,88,0,0,0-.55,10.74C480.37,373.1,491.8,459,616,477.9v-1Z" transform="translate(-196 -27)"/><path class="cls-28" d="M616,472.67c-124.29-17.53-134.31-104-134.37-131.95A80.65,80.65,0,0,1,482,332l-1-.12a80.63,80.63,0,0,0-.4,8.84c-0.06,28.19,10.42,115.45,135.37,133v-1Z" transform="translate(-196 -27)"/><path class="cls-27" d="M616,468.48c-125.12-16.1-134.13-104.09-134.19-129.67,0-4.41.27-6.93,0.27-6.94l-1-.11h0s-0.28,2.59-.28,7c-0.06,25.76,9.41,114.6,135.19,130.68v-1Z" transform="translate(-196 -27)"/><path class="cls-27" d="M616,464.3C489.95,449.67,482,359.91,482,337c0-3.37.18-5.27,0.17-5.27l-1-.09s-0.18,2-.18,5.36c-0.06,23.06,8.31,113.68,135,128.29v-1Z" transform="translate(-196 -27)"/><path class="cls-26" d="M616,460.15C488.9,447,482.16,355.25,482.1,335.38c0-2.42.11-3.75,0.11-3.76l-1-.08h0s-0.11,1.38-.11,3.84c-0.06,20,7.12,112.68,134.9,125.78v-1Z" transform="translate(-196 -27)"/><path class="cls-25" d="M616,456C487.72,444.45,482.27,350.38,482.21,333.93c0-1.58.05-2.42,0.05-2.43l-1-.06s-0.06.89-.06,2.49C481.15,350.53,487,445.49,616,457v-1Z" transform="translate(-196 -27)"/><path class="cls-25" d="M616,451.89C486.4,442,482.37,345.26,482.3,332.7c0-.87,0-1.33,0-1.33l-1,0h0s0,0.49,0,1.37a119.2,119.2,0,0,0,21.4,65.54c18.15,25.68,51.7,50,113.3,54.65v-1Z" transform="translate(-196 -27)"/><path class="cls-24" d="M616,447.79c-131.06-8.26-133.56-107.92-133.62-116,0-.34,0-0.51,0-0.51l-1,0h0s0,0.19,0,.55c0,4.32.73,33.69,20.15,62,17.82,26,51.45,51.06,114.47,55v-1Z" transform="translate(-196 -27)"/><path class="cls-24" d="M616,443.74c-132.71-6.51-133.5-109.57-133.56-112.55a0.27,0.27,0,0,1,0,0l-1,0h0s0,0,0,.09c0,1.62.26,30.06,18.9,58.14,17.47,26.33,51.14,52.27,115.66,55.41v-1Z" transform="translate(-196 -27)"/><path class="cls-23" d="M616,439.68c-64.9-2.26-98.19-28.27-115.33-54.27A113.84,113.84,0,0,1,484.86,348a89.57,89.57,0,0,1-2.36-17h-1c0,0.28.31,27.59,18.33,54.95,17.29,26.27,51,52.48,116.17,54.73v-1Z" transform="translate(-196 -27)"/><polygon class="cls-23" points="285.5 304 285.5 304.01 285.5 304.01 285.5 304.01 285.5 304 285.5 304"/><path class="cls-22" d="M616,435.65c-64.57-1.32-97.85-26.85-115.07-52.38a112.21,112.21,0,0,1-15.81-36.05,87.64,87.64,0,0,1-2.56-16.36l-1,0h0c0,0.05.72,26.48,18.55,52.94,17.36,25.79,51.05,51.52,115.89,52.82v-1Z" transform="translate(-196 -27)"/><path class="cls-22" d="M616,431.66c-64.25-.36-97.52-25.42-114.81-50.47a110.55,110.55,0,0,1-15.82-34.71,85.56,85.56,0,0,1-2.76-15.74l-1,0c0,0.05,1.18,25.49,18.75,51,17.44,25.31,51.13,50.57,115.63,50.91v-1Z" transform="translate(-196 -27)"/><path class="cls-21" d="M616,427.68c-0.79,0-1.58,0-2.35,0-62.39,0-95.05-24.3-112.21-48.57a109.06,109.06,0,0,1-15.82-33.38,83.12,83.12,0,0,1-2.94-15.14l-1,.07c0,0.26,1.69,24.63,18.94,49s50.38,49,113,49c0.77,0,1.57,0,2.35,0v-1Z" transform="translate(-196 -27)"/><polygon class="cls-21" points="285.68 303.68 285.68 303.68 285.68 303.68 285.68 303.68 285.68 303.68 285.68 303.68"/><path class="cls-20" d="M616,423.73c-2,.05-4,0.08-5.91.08-59.75,0-91.52-23.36-108.44-46.69A107.54,107.54,0,0,1,485.85,345a81.19,81.19,0,0,1-3.12-14.55l-1,.09h0c0,0.05,2,23.58,19.11,47.14s49.23,47.11,109.24,47.1c1.94,0,3.91,0,5.91-.08v-1Z" transform="translate(-196 -27)"/><path class="cls-20" d="M616,419.8c-3.18.13-6.29,0.21-9.32,0.21-57.23,0-88.13-22.44-104.81-44.85a106,106,0,0,1-15.8-30.83,79,79,0,0,1-3.28-14l-1,.11c0,0.25,2.51,22.75,19.27,45.29S549.19,421,606.68,421c3,0,6.14-.08,9.32-0.21v-1Z" transform="translate(-196 -27)"/><polygon class="cls-20" points="285.8 303.46 285.8 303.47 285.8 303.47 285.8 303.47 285.8 303.46 285.8 303.46"/><path class="cls-19" d="M616,415.9q-6.5.37-12.6,0.37c-54.81,0-84.88-21.54-101.33-43a104.57,104.57,0,0,1-15.78-29.59,77.41,77.41,0,0,1-3.44-13.41l-1,.13h0c0,0.05,2.81,21.75,19.42,43.48s47.05,43.45,102.13,43.44q6.09,0,12.6-.37v-1Z" transform="translate(-196 -27)"/><path class="cls-19" d="M616,412q-8.2.6-15.76,0.6c-52.5,0-81.77-20.65-98-41.29A103.15,103.15,0,0,1,486.49,343a75.27,75.27,0,0,1-3.58-12.87l-1,.15h0s3.16,20.87,19.54,41.71,46,41.68,98.78,41.67q7.55,0,15.76-.6v-1Z" transform="translate(-196 -27)"/><path class="cls-18" d="M616,408.17q-9.86.88-18.79,0.89c-50.29,0-78.79-19.79-94.8-39.57a101.78,101.78,0,0,1-15.72-27.2A73.5,73.5,0,0,1,483,330l-1,.17h0s3.5,20,19.65,40,45,39.94,95.58,39.94c6,0,12.23-.3,18.79-0.89v-1Z" transform="translate(-196 -27)"/><path class="cls-17" d="M616,404.36a205.51,205.51,0,0,1-21.72,1.21c-48.18,0-75.94-19-91.73-37.88a100.51,100.51,0,0,1-15.69-26,72,72,0,0,1-3.85-11.8l-1,.2s3.81,19.16,19.75,38.29,44,38.25,92.5,38.25A206.9,206.9,0,0,0,616,405.36v-1Z" transform="translate(-196 -27)"/><path class="cls-17" d="M616,400.58a199.82,199.82,0,0,1-24.53,1.58c-46.17,0-73.22-18.13-88.79-36.24A99.41,99.41,0,0,1,487,341a70.17,70.17,0,0,1-4-11.29l-1,.22h0s4.1,18.33,19.83,36.64,43.11,36.6,89.55,36.6A201.56,201.56,0,0,0,616,401.59v-1Z" transform="translate(-196 -27)"/><path class="cls-16" d="M616,396.82a195.37,195.37,0,0,1-27.24,2c-44.25,0-70.61-17.33-86-34.65a98.18,98.18,0,0,1-15.59-23.81,68.5,68.5,0,0,1-4.07-10.79l-1,.24c0.05,0.21,4.44,17.61,19.88,35s42.21,35,86.72,35a196.25,196.25,0,0,0,27.24-2v-1Z" transform="translate(-196 -27)"/><polygon class="cls-16" points="286.16 302.82 286.16 302.83 286.16 302.83 286.16 302.83 286.16 302.82 286.16 302.82"/><path class="cls-16" d="M616,393.09a190.32,190.32,0,0,1-29.85,2.49c-42.42,0-68.12-16.55-83.27-33.08a97.15,97.15,0,0,1-15.54-22.74,67,67,0,0,1-4.16-10.3l-1,.27h0s4.62,16.74,19.92,33.45,41.32,33.42,84,33.41A191.66,191.66,0,0,0,616,394.1v-1Z" transform="translate(-196 -27)"/><path class="cls-15" d="M616,389.4a186.07,186.07,0,0,1-32.37,3c-40.67,0-65.73-15.79-80.68-31.56a96,96,0,0,1-15.46-21.7,65.47,65.47,0,0,1-4.25-9.83l-1,.29h0s4.85,16,19.95,31.92,40.46,31.88,81.4,31.88a187.05,187.05,0,0,0,32.37-3v-1Z" transform="translate(-196 -27)"/><path class="cls-14" d="M616,385.73a181.87,181.87,0,0,1-34.8,3.59c-39,0-63.45-15-78.19-30.09a95,95,0,0,1-15.39-20.68,64,64,0,0,1-4.33-9.36l-0.95.32h0c0,0.07,20.26,60.81,98.85,60.81a182.66,182.66,0,0,0,34.8-3.57v-1Z" transform="translate(-196 -27)"/><path class="cls-14" d="M616,382.1a177.8,177.8,0,0,1-37.16,4.21c-37.43,0-61.27-14.33-75.8-28.64A94.2,94.2,0,0,1,487.75,338a62.49,62.49,0,0,1-4.39-8.92l-0.94.34c0.12,0.38,21.21,57.91,96.43,57.91A178.76,178.76,0,0,0,616,383.12v-1Z" transform="translate(-196 -27)"/><polygon class="cls-14" points="286.41 302.4 286.41 302.4 286.41 302.4 286.41 302.41 286.41 302.4 286.41 302.4"/><path class="cls-13" d="M616,378.5a174.15,174.15,0,0,1-39.43,4.88c-35.92,0-59.18-13.63-73.51-27.24a93.25,93.25,0,0,1-15.2-18.73,61.25,61.25,0,0,1-4.45-8.48l-0.93.37h0c0,0.07,21.69,55.08,94.09,55.08A175,175,0,0,0,616,379.53v-1Z" transform="translate(-196 -27)"/><path class="cls-12" d="M616,374.95a170.42,170.42,0,0,1-41.64,5.58c-34.49,0-57.19-12.95-71.3-25.88A92.72,92.72,0,0,1,488,336.86a60.11,60.11,0,0,1-4.5-8.05l-0.92.39c0,0.07,22.29,52.33,91.82,52.33A171.3,171.3,0,0,0,616,376v-1Z" transform="translate(-196 -27)"/></g></g><g id="Layer_4" data-name="Layer 4"><path class="cls-46" d="M453.88,261.24c24-11.62,46.16-24.91,50.78-53.23,4.09-25.11-9-56.74-38.46-56.66-28.94.08-37.42,30.64-25.64,52.72,5.89,11,14.17,16.9,17.22,29.64,2.42,10.09,2.72,18.55-3.15,27.62" transform="translate(-196 -27)"/><path class="cls-47" d="M453.66,260.79l1-.49h0a27.47,27.47,0,0,0,4.23-14.86h0a50.17,50.17,0,0,0-1.61-11.63h0c-3-12.55-11.2-18.37-17.17-29.52h0a44.14,44.14,0,0,1-5.2-20.65h0c0-17,10.45-32.76,31.26-32.8h0.12c13.1,0,23,6.22,29.64,15.32h0c6.61,9.1,9.94,21.05,9.94,32.63h0a58.32,58.32,0,0,1-.74,9.29h0c-4.58,28.08-26.21,41.51-49.78,53h0l-0.33.52h0l-0.31-.2-0.63.31h0l-0.44-.9h0ZM466.2,151.84C446,151.91,436,167,435.92,183.64h0A43.12,43.12,0,0,0,441,203.82h0c5.8,10.91,14.15,16.83,17.26,29.75h0a51.07,51.07,0,0,1,1.64,11.86h0a28.3,28.3,0,0,1-3.61,14.07h0c23-11.32,43.47-24.55,47.87-51.58h0a56.72,56.72,0,0,0,.72-9.13h0c0-11.39-3.28-23.16-9.75-32h0c-6.47-8.89-16.07-14.9-28.84-14.91h-0.1Z" transform="translate(-196 -27)"/><path class="cls-46" d="M451.22,250.43c1.89-26.32-22.67-38-30.36-60.66-10.68-31.36,33-44.73,24.67-67.12-11.3-30.53-60.2-5.89-68.76,11.4-16.47,33.24,3.07,77,33.45,94.56,14.69,8.49,28.5,11.59,40.78,24.06" transform="translate(-196 -27)"/><path class="cls-47" d="M410,229c-22.93-13.27-39.69-41.26-39.7-68.59h0a59.58,59.58,0,0,1,6-26.62h0c5.8-11.6,28.82-26.09,47.41-26.14h0c9.73,0,18.33,4.1,22.27,14.79h0a16.82,16.82,0,0,1,1.08,5.87h0c0,8.72-7,16.12-13.83,24.14h0c-6.85,8-13.59,16.63-13.59,27.53h0a29.58,29.58,0,0,0,1.67,9.59h0c7.26,21.54,30.43,33.26,30.49,58h0c0,0.94,0,1.9-.1,2.88h0l-1-.07c0.07-1,.1-1.89.1-2.81h0c0.06-24-22.87-35.63-30.44-57.65h0a30.56,30.56,0,0,1-1.72-9.91h0c0-11.34,7-20.14,13.83-28.18h0c6.88-8,13.61-15.35,13.59-23.49h0a15.79,15.79,0,0,0-1-5.53h0c-3.83-10.28-11.86-14.12-21.33-14.14h0c-18.08,0-41.07,14.49-46.51,25.58h0a58.54,58.54,0,0,0-5.94,26.18h0c0,26.93,16.59,54.67,39.2,67.72h0c14.6,8.45,28.48,11.57,40.89,24.14h0l-0.71.7c-12.16-12.36-25.9-15.45-40.68-24h0Z" transform="translate(-196 -27)"/><path class="cls-46" d="M385.63,267.43c3.06,0.31,6.11.72,9.15,1.18-1-2.56-1.67-5.18-.81-8,3-9.68,14.66-11.26,22.33-6.68l0.09-.93c-18.61-18.55-57.52-8.92-51.94,15C371.31,266.42,378.77,266.73,385.63,267.43Z" transform="translate(-196 -27)"/><path class="cls-47" d="M416.74,252.71h0c-6.84-6.82-16.35-9.87-25.43-9.88-14.36,0-27.89,7.69-27.92,20.69a20.2,20.2,0,0,0,.58,4.65l1-.23a19.48,19.48,0,0,1-.54-4.43c0-6.11,3.18-11,8.16-14.4s11.73-5.29,18.75-5.29h0c8.71,0,17.8,2.89,24.38,9.25a18.39,18.39,0,0,0-8.44-2.06c-5.92,0-11.75,3-13.76,9.49a9.39,9.39,0,0,0-.43,2.83,14.57,14.57,0,0,0,1.14,5.18l1.15,0.17a13.45,13.45,0,0,1-1.3-5.36,8.41,8.41,0,0,1,.39-2.53c1.88-6,7.19-8.78,12.81-8.79a17.34,17.34,0,0,1,8.79,2.39l0.51-.86-0.42-.24Z" transform="translate(-196 -27)"/><path class="cls-46" d="M386,233.25c-15.72,4.49-33,37.73-48.62,24.1-22.71-19.76,10.79-30.17,25.67-27.94,7,1,13.41,1.37,22.94,3.84" transform="translate(-196 -27)"/><path class="cls-47" d="M337,257.72c-5.52-4.8-7.84-9.13-7.85-13h0c0-5.37,4.52-9.39,10.35-12.07h0a48.55,48.55,0,0,1,19.12-4.08h0a30,30,0,0,1,4.45.3h0c6.93,1,13.42,1.37,23,3.85h0l-0.13.48,0.14,0.48c-6.33,1.79-13.13,8.58-20,15h0c-6.86,6.37-13.75,12.38-20.76,12.41h0a12.47,12.47,0,0,1-8.34-3.38h0ZM340,233.59c-5.71,2.62-9.79,6.43-9.77,11.16h0c0,3.41,2.09,7.51,7.5,12.21h0a11.48,11.48,0,0,0,7.7,3.14h0c6.39,0,13.25-5.77,20.08-12.15h0c6.3-5.85,12.55-12.15,18.76-14.64h0c-8.61-2.1-14.67-2.44-21.27-3.42h0a29,29,0,0,0-4.3-.29h0a47.63,47.63,0,0,0-18.69,4h0Z" transform="translate(-196 -27)"/><path class="cls-46" d="M384.73,223.33c-13.73-2.82-32.62-3.32-42.21-15.18-9.22-11.39-8.15-27.24,9.65-25.56,23.52,2.22,17,30.85,32.57,40.74" transform="translate(-196 -27)"/><path class="cls-47" d="M342.12,208.47c-3.73-4.62-5.82-10-5.83-14.66h0a11.42,11.42,0,0,1,3.23-8.4h0c2.21-2.16,5.57-3.44,10.12-3.44h0q1.23,0,2.57.13h0c12,1.11,16.45,9.12,19.69,17.81h0c3.26,8.73,5.54,18.22,13.1,23h0l-0.27.42-0.1.49C371,221,352,220.56,342.12,208.47h0Zm-4.83-14.66c0,4.41,2,9.57,5.6,14h0c8.87,11,26.18,12.1,39.71,14.58h0c-6.53-5.35-8.67-14.24-11.65-22.15h0c-3.28-8.65-7.34-16.06-18.85-17.17h0c-0.87-.08-1.69-0.12-2.47-0.12h0c-8.73.05-12.29,4.73-12.34,10.84h0Z" transform="translate(-196 -27)"/><path class="cls-46" d="M476.23,263.52c10.93-3.82,19.39-9.19,26.14-18.58,5.1-7.1,6.74-23.71,14.9-28,19-10.11,24.67,19.38,15.42,31.9-10.86,14.69-39.62,21.54-56.54,15.47" transform="translate(-196 -27)"/><path class="cls-47" d="M476,264.73l0.34-.94h0l-0.26-.75c10.87-3.8,19.21-9.1,25.9-18.4h0c5-6.87,6.56-23.56,15.07-28.19h0a16.15,16.15,0,0,1,7.52-2.13h0c8.7,0.05,13,9.7,13,19.33h0c0,5.64-1.45,11.36-4.45,15.43h0C524.75,260.34,506.33,267,490.41,267h0A43.16,43.16,0,0,1,476,264.73h0ZM490.41,266c15.65,0,33.88-6.61,41.89-17.48h0c2.83-3.82,4.25-9.37,4.25-14.84h0a25.52,25.52,0,0,0-3.08-12.74h0c-2-3.41-5-5.59-8.9-5.59h0a15.14,15.14,0,0,0-7.05,2h0c-7.81,4-9.55,20.57-14.73,27.89h0c-6.76,9.41-15.27,14.84-26.14,18.67h0A42.55,42.55,0,0,0,490.41,266h0Z" transform="translate(-196 -27)"/><path class="cls-46" d="M511.84,206.55c29.61-6.61,14.28-51.57,2-35-8.77,11.86,11.8,25.11-1.33,35.29" transform="translate(-196 -27)"/><path class="cls-47" d="M512.55,206.89l-0.6.14h0l-0.22-1q0.71-.16,1.38-0.35h0a9.24,9.24,0,0,0,3.43-7.21h0c0-6.12-5.4-13.11-5.44-20.16h0a11.52,11.52,0,0,1,2.35-7.07h0c1.93-2.63,4-3.85,6.11-3.85h0c5.62,0.12,9.82,8.49,9.86,17.48h0c0,8.76-4.19,18.38-15.82,21.72h0q-0.37.32-.78,0.64h0l-0.28-.36h0Zm7-38.48c-1.65,0-3.47,1-5.31,3.45h0a10.53,10.53,0,0,0-2.16,6.47h0c0,6.56,5.39,13.52,5.44,20.16h0a9.88,9.88,0,0,1-2.4,6.55h0c9.78-3.63,13.26-12.15,13.29-20.16h0a24.9,24.9,0,0,0-2.72-11.58h0c-1.66-3.05-3.88-4.9-6.11-4.9h0ZM511.95,207h0Z" transform="translate(-196 -27)"/><path class="cls-46" d="M397.78,379c-15.78-12.53-32.07-23.2-52.83-17-18.41,5.46-35.6,24.73-25.89,44.72,9.54,19.64,33.1,15.38,44.23.13,5.56-7.62,6.84-15.17,14.49-21.42,6.06-5,11.71-7.93,19.8-6.92" transform="translate(-196 -27)"/><path class="cls-47" d="M318.62,406.86a27.21,27.21,0,0,1-2.86-12h0c0-15.68,14.16-29,29-33.42h0A42.45,42.45,0,0,1,357,359.63h0c15.13,0,27.92,8.52,40.27,18.26h0l0.43,0.05h0l0,0.26,0.47,0.38h0l-0.62.78-0.64-.51h0c-0.79-.08-1.56-0.11-2.3-0.11h0c-6.36,0-11.18,2.73-16.42,7h0c-7.51,6.12-8.77,13.58-14.41,21.33h0c-6,8.19-15.48,13.26-24.6,13.26h0c-8.1,0-15.9-4.08-20.45-13.47h0ZM345.1,362.4c-14.58,4.31-28.36,17.43-28.33,32.46h0a26.24,26.24,0,0,0,2.75,11.56h0c4.43,9.08,11.81,12.9,19.58,12.91h0c8.74,0,18-4.91,23.79-12.85h0c5.49-7.49,6.78-15.13,14.58-21.51h0c5.29-4.33,10.39-7.23,17.06-7.23h0l0.91,0h0c-12-9.32-24.22-17.13-38.48-17.12h0a41.44,41.44,0,0,0-11.86,1.77h0Z" transform="translate(-196 -27)"/><path class="cls-46" d="M407.35,382.18c-18.3,7.27-18.22,27.57-30.91,40.08-17.61,17.35-40.75-7.64-53.1,5.2-16.85,17.5,15.57,42.37,30,42.51,27.68,0.29,50.75-27,52.69-53.15,0.94-12.62-1.45-22.91,2.94-35.21" transform="translate(-196 -27)"/><path class="cls-47" d="M353.28,470.47c-6-.08-14.69-4.16-22-10.16h0c-7.29-6-13.19-13.92-13.2-21.87h0A16,16,0,0,1,323,427.11h0a13.12,13.12,0,0,1,10-4h0c8.36,0,18.29,5,27.85,5h0a20.68,20.68,0,0,0,15.28-6.23h0c12.54-12.24,12.45-32.72,31.08-40.19h0l0.37,0.93c-18,7.07-17.89,27.2-30.75,40h0a21.7,21.7,0,0,1-16,6.52h0c-9.87,0-19.86-5-27.85-5h0a12.09,12.09,0,0,0-9.27,3.68h0a15,15,0,0,0-4.6,10.64h0c0,7.43,5.66,15.21,12.84,21.09h0c7.16,5.9,15.8,9.89,21.37,9.93h0.43c27.14,0,49.85-27,51.76-52.69h0c0.19-2.57.24-5,.24-7.46h0c0-3-.08-5.82-0.08-8.67h0c0-6.24.38-12.42,2.81-19.21h0l0.94,0.33c-2.37,6.63-2.75,12.67-2.75,18.87h0c0,2.84.08,5.7,0.08,8.67h0c0,2.43-.05,4.93-0.25,7.54h0c-2,26.21-24.92,53.58-52.75,53.61h-0.44Z" transform="translate(-196 -27)"/><path class="cls-46" d="M411.73,381.93c-15.87,45.71,40.43,104.17,70.56,48.88,6.81-12.5,6.09-44.43-14.8-43.33-12.83.67-15.83,19.6-29.09,21.59-16.11,2.42-26.53-13.35-25.26-27.65" transform="translate(-196 -27)"/><path class="cls-47" d="M451.91,453.8c-22.29-.06-43.42-27.17-43.44-55.13h0a51.42,51.42,0,0,1,2.79-16.91h0l0.94,0.33a50.44,50.44,0,0,0-2.74,16.58h0a61.9,61.9,0,0,0,13.16,37.4h0c7.94,10.11,18.56,16.73,29.28,16.72h0c10.51,0,21.26-6.31,29.95-22.22h0c2.33-4.26,3.78-10.95,3.78-17.75h0c0-6.17-1.2-12.44-3.93-17.11h0C479,391,474.75,388,468.53,388h0c-0.33,0-.67,0-1,0h0c-6.14.31-10,5-14,10.11h0c-4,5-8.15,10.43-15,11.47h0a22.57,22.57,0,0,1-3.33.25h0c-13.76,0-22.59-13.21-22.61-26h0c0-.81,0-1.62.11-2.42h0l1,0.09c-0.07.77-.11,1.55-0.1,2.33h0A27.87,27.87,0,0,0,419.45,401h0a19.87,19.87,0,0,0,15.69,7.84h0a21.47,21.47,0,0,0,3.18-.24h0c6.38-.95,10.37-6,14.39-11.1h0c4-5,8.06-10.13,14.75-10.49h0c0.36,0,.72,0,1.07,0h0c6.58,0,11.19,3.36,14,8.26h0c2.87,4.9,4.07,11.32,4.07,17.61h0c0,7-1.46,13.75-3.9,18.23h0c-8.77,16.11-19.87,22.75-30.81,22.75h0Z" transform="translate(-196 -27)"/><path class="cls-46" d="M415.66,449.82c10.87,12.2,48.31,13.27,42.84,33.31-7.93,29-31.86,3.4-36.32-11-2.09-6.73-4.6-12.67-6.51-22.33" transform="translate(-196 -27)"/><path class="cls-47" d="M446.6,496.88c-10.25-.1-21.82-14.82-24.91-24.58h0c-2.08-6.69-4.61-12.68-6.53-22.38h0l0.49-.1,0.37-.33c4.89,5.52,15.7,8.83,25.31,12.73h0c9.56,3.91,18.15,8.48,18.2,17.11h0a14.94,14.94,0,0,1-.56,3.94h0c-2.63,9.72-7.21,13.62-12.36,13.62h0Zm-24-24.88c2.87,9.44,14.64,24,24,23.88h0c4.57,0,8.77-3.33,11.41-12.89h0a14.06,14.06,0,0,0,.52-3.67h0c0-7.8-8-12.29-17.57-16.18h0c-8.87-3.62-18.89-6.67-24.47-11.78h0c1.85,8.67,4.18,14.27,6.16,20.64h0Z" transform="translate(-196 -27)"/><path class="cls-46" d="M407.27,455.25c3.42,13.59,11.19,30.82,4.68,44.62-6.25,13.26-21,19.18-27.21,2.42-8.22-22.15,20.39-28.73,22.53-47" transform="translate(-196 -27)"/><path class="cls-47" d="M384.27,502.46a22.35,22.35,0,0,1-1.51-7.81h0c0-8.42,5.69-14.37,11.45-20.18h0c5.79-5.81,11.67-11.51,12.57-19.29h0l0.5,0.06,0.48-.12c2.45,9.76,7.21,21.48,7.21,32.56h0a28.74,28.74,0,0,1-2.56,12.39h0c-3.61,7.63-10,12.94-16.18,13h0c-4.74,0-9.22-3.23-11.93-10.58h0Zm10.64-27.28c-5.78,5.81-11.17,11.55-11.16,19.47h0a21.3,21.3,0,0,0,1.45,7.46h0c2.67,7.14,6.76,9.92,11,9.93h0c5.6,0,11.79-5,15.27-12.39h0a27.72,27.72,0,0,0,2.47-12h0c0-10-4-20.77-6.6-30.13h0c-1.71,7.08-7.23,12.37-12.45,17.63h0Zm11.87-19.81h0Z" transform="translate(-196 -27)"/><path class="cls-46" d="M381.2,318.2c-13.66.42-27.24,1.82-40.82,3.37-3.79,5.3-3.94,11.67,3.47,17.1s23.12-.28,31.73,1.23c11.39,2,19.9,7.28,28.09,15.47l0.71-.26C403,342.41,393.22,327.18,381.2,318.2Z" transform="translate(-196 -27)"/><path class="cls-47" d="M404.89,355.07c-1.38-12.72-11-27.79-22.89-36.89l-1.6,0c12,8.77,22,24,23.46,36.62-8.17-8.13-16.76-13.43-28.18-15.43a20.75,20.75,0,0,0-3.57-.27c-5.53,0-12.48,1.45-18.47,1.44-3.76,0-7.11-.57-9.48-2.31-4.19-3.08-5.83-6.36-5.83-9.55a12.13,12.13,0,0,1,2.75-7.23l-1.35.15a12.94,12.94,0,0,0-2.4,7.07c0,3.56,1.88,7.17,6.24,10.36,2.66,1.94,6.22,2.5,10.07,2.51,6.14,0,13.1-1.45,18.47-1.44a19.79,19.79,0,0,1,3.4.26c11.28,2,19.68,7.19,27.82,15.33l0.56-.56h0Z" transform="translate(-196 -27)"/><path class="cls-46" d="M336.9,348.08c-18.83-23.79-52.65,9.55-32.37,13.39,14.5,2.74,17.48-21.54,32.36-14.14" transform="translate(-196 -27)"/><path class="cls-47" d="M304.43,362c-4.54-.82-6.7-3.3-6.67-6.3h0c0.1-7.05,10.94-16.51,22.69-16.58h0a20.66,20.66,0,0,1,15.75,7.38h0q0.45,0.19.91,0.42h0l-0.2.4,0.39,0.48h0l-0.78.62q-0.45-.57-0.91-1.1h0a10.7,10.7,0,0,0-4.08-.88h0c-4.62,0-8,3.75-11.63,7.72h0c-3.59,3.93-7.42,8-13.11,8h0a12.53,12.53,0,0,1-2.34-.23h0Zm0.92-16.41c-4,3.13-6.61,7.09-6.59,10.11h0c0,2.48,1.57,4.46,5.86,5.32h0a11.48,11.48,0,0,0,2.15.21h0c5.14,0,8.76-3.77,12.37-7.72h0c3.59-3.92,7.14-8,12.37-8h0a10.67,10.67,0,0,1,2.61.34h0a19.28,19.28,0,0,0-13.67-5.67h0a25.26,25.26,0,0,0-15.08,5.46h0Z" transform="translate(-196 -27)"/><path class="cls-46" d="M520.34,369.75c3.6,19.83,8.8,38.59,28.46,47.66,17.43,8,43.07,4.9,49-16.53,5.78-21.06-14.73-33.39-33.16-29.28-9.21,2.06-15.14,6.89-25,6.54-7.82-.28-14-1.77-19.44-7.86" transform="translate(-196 -27)"/><path class="cls-47" d="M567.48,422a45.77,45.77,0,0,1-18.89-4.1h0c-19.54-9-25-27.5-28.54-46.93h0l-0.29-.32h0l0.19-.17-0.11-.6h0l1-.18,0.15,0.8h0c5.2,5.54,11.06,6.9,18.62,7.18h1c9.09,0,14.88-4.51,23.9-6.55h0a33.3,33.3,0,0,1,7.28-.8h0c14.12,0,27.47,8.93,27.48,23.53h0a27.08,27.08,0,0,1-1,7.18h0c-4,14.69-17.23,21-30.71,21h0ZM549,417a44.71,44.71,0,0,0,18.47,4h0c13.22,0,25.89-6,29.79-20.21h0a26.13,26.13,0,0,0,1-6.91h0c0-13.89-12.73-22.51-26.48-22.53h0a32.28,32.28,0,0,0-7.06.78h0c-8.76,1.94-14.65,6.56-24.12,6.57h0l-1,0h0c-7.14-.25-13.09-1.53-18.26-6.43h0c3.6,18.85,9.12,36.17,27.71,44.74h0Z" transform="translate(-196 -27)"/><path class="cls-46" d="M616,333.15a17,17,0,0,0-2.19-2.45c-20.62-18.48-56-13.15-74.66,5.19-9,8.87-14,18.18-25.44,24.52l1.56,0.61c18.55,6.61,31.88-8.71,49.67-9.73,24.68-1.42,25.59,32.62,43.34,31.12a16.51,16.51,0,0,0,7.72-2.51V333.15Z" transform="translate(-196 -27)"/><path class="cls-47" d="M616,332.34a16.79,16.79,0,0,0-1.86-2c-9-8-20.7-11.62-32.62-11.62-15.8,0-32,6.26-42.73,16.82-9.1,8.94-14,18.19-25.33,24.44l0.49,0.87c11.55-6.43,16.57-15.81,25.54-24.6,10.54-10.35,26.5-16.54,42-16.54,11.72,0,23.19,3.52,31.95,11.37A17.11,17.11,0,0,1,616,334v-1.66Z" transform="translate(-196 -27)"/><path class="cls-47" d="M616,379.32a16,16,0,0,1-7.76,2.6c-0.37,0-.73,0-1.08,0-7.78,0-12.24-7.53-17.56-15.39s-11.55-15.83-23.18-15.83c-0.5,0-1,0-1.51,0-14.88.89-26.51,11.42-40.26,11.38a27.13,27.13,0,0,1-9.21-1.62l-0.34.94a28.17,28.17,0,0,0,9.55,1.68c14.26,0,25.89-10.59,40.32-11.38,0.5,0,1,0,1.46,0,11.1,0,17,7.59,22.35,15.39s9.83,15.78,18.38,15.83c0.38,0,.76,0,1.16,0A17.07,17.07,0,0,0,616,380.5v-1.17Z" transform="translate(-196 -27)"/><path class="cls-46" d="M491,275c-7.89,2.89-18.24,12.61-22,22.75,5.87,5.77,9,13.92,10.73,22.18,9.38,1.43,20.81-5.52,30,.37,13.7,8.81,11.13,27.54.74,37.44l1.4,0.55C553.89,334.44,550.14,253.36,491,275Z" transform="translate(-196 -27)"/><path class="cls-47" d="M509.94,319.91a16.55,16.55,0,0,0-9.22-2.49c-6.17,0-12.56,2.26-18.24,2.25a17.62,17.62,0,0,1-2.89-.23c0.08,0.35.15,0.7,0.22,1a18.66,18.66,0,0,0,2.67.19c5.93,0,12.31-2.26,18.24-2.25a15.53,15.53,0,0,1,8.68,2.33,19.65,19.65,0,0,1,9.19,17.1,27.77,27.77,0,0,1-8.52,19.56l0.69,0.73a28.78,28.78,0,0,0,8.83-20.29A20.66,20.66,0,0,0,509.94,319.91Z" transform="translate(-196 -27)"/><path class="cls-47" d="M532.79,281.83c-5.14-6.69-13-10.95-23.42-10.94a54.07,54.07,0,0,0-18.52,3.68c-8,3-18.33,12.58-22.26,22.82,0.26,0.25.51,0.52,0.76,0.77,3.68-10,14.07-19.84,21.85-22.66a53.11,53.11,0,0,1,18.17-3.62c20.32,0,30,16.32,30.06,35.44,0,18.84-9.58,40.19-27.86,50.56l0.49,0.87c18.66-10.61,28.36-32.27,28.37-51.43C540.42,297.61,537.93,288.52,532.79,281.83Z" transform="translate(-196 -27)"/><polygon class="cls-47" points="316.06 331.76 316.06 331.76 316.06 331.76 316.06 331.76 316.06 331.76 316.06 331.76"/><path class="cls-46" d="M553.64,304.71c-0.12-16.35-27.55-41.84-10.23-53.29,25.12-16.6,26.18,18.46,20.06,32.21-2.87,6.44-4.9,12.56-9.83,21.08" transform="translate(-196 -27)"/><path class="cls-47" d="M553.64,304.71h-0.5c0-12.1-15.9-29.82-16-42.95h0a12.22,12.22,0,0,1,6-10.76h0c4.69-3.1,8.59-4.45,11.84-4.45h0c4.44,0,7.54,2.59,9.42,6.37h0c1.9,3.78,2.69,8.77,2.69,13.85h0a44.75,44.75,0,0,1-3.16,17.07h0c-2.85,6.4-4.9,12.56-9.86,21.13h0l-0.43-.25h0Zm-10-52.87a11.2,11.2,0,0,0-5.51,9.93h0C538.11,273.71,552.62,290.42,554,303h0c4.32-7.74,6.28-13.49,9-19.58h0a43.83,43.83,0,0,0,3.08-16.66h0c0-5-.79-9.83-2.58-13.4h0c-1.81-3.57-4.51-5.8-8.53-5.81h0c-3,0-6.69,1.25-11.28,4.29h0Z" transform="translate(-196 -27)"/><path class="cls-46" d="M563.53,306.16c6.39-12.47,11.92-30.55,25.91-36.62,13.44-5.84,28.43-.57,22.05,16.13-8.43,22.07-34.27,8.14-48,20.49" transform="translate(-196 -27)"/><path class="cls-47" d="M563.52,306.16l-0.44-.23c6.38-12.39,11.87-30.61,26.16-36.85h0a27.1,27.1,0,0,1,10.67-2.34h0a15.44,15.44,0,0,1,9.59,2.88h0a10.65,10.65,0,0,1,4,8.76h0a21.14,21.14,0,0,1-1.54,7.46h0c-4.29,11.28-13.19,13.41-22.43,14.21h0c-9.28.81-19,.47-25.66,6.47h0l-0.34-.37h0ZM589.63,270c-13,5.6-18.65,22-24.66,34.37h0c6.9-4.86,16-4.55,24.46-5.31h0c9.21-.84,17.44-2.78,21.59-13.57h0a20.16,20.16,0,0,0,1.48-7.11h0c0-7.13-5.46-10.6-12.6-10.64h0A26.12,26.12,0,0,0,589.63,270h0Z" transform="translate(-196 -27)"/><rect class="cls-47" x="367.97" y="279.38"/><path class="cls-46" d="M500.34,383.59c0.75,11.56,3.67,21.14,10.91,30.16,5.47,6.81,21,12.83,23,21.86,4.66,21-25.27,18.59-34.86,6.33-11.25-14.39-10.17-43.93.21-58.62" transform="translate(-196 -27)"/><path class="cls-47" d="M499,442.24c-5.56-7.12-8.12-17.76-8.12-28.53h0c0-11.43,2.89-23,8.32-30.69h0l0.82,0.58h0l0.79-.05c0.75,11.49,3.63,20.95,10.8,29.88h0c5.27,6.68,20.95,12.62,23.13,22.06h0a19.84,19.84,0,0,1,.5,4.25h0A10.83,10.83,0,0,1,530.9,449h0a17.23,17.23,0,0,1-10.16,2.82h0c-7.94,0-17-3.62-21.7-9.55h0Zm-7.12-28.53c0,10.61,2.55,21.06,7.91,27.91h0c4.36,5.6,13.27,9.18,20.91,9.17h0c7.48,0,13.52-3.25,13.54-11h0a18.79,18.79,0,0,0-.48-4h0c-1.81-8.6-17.27-14.71-22.94-21.65h0c-7.26-9-10.22-18.68-11-30.18h0c-5.14,7.44-7.94,18.72-7.94,29.84h0Z" transform="translate(-196 -27)"/><path class="cls-46" d="M545.72,433.13c-1.54,30.3,45.87,27.55,33.16,11.29-9.09-11.62-27.35,4.66-33.64-10.72" transform="translate(-196 -27)"/><path class="cls-47" d="M553.31,451.69c-4.67-3.55-8.06-9.1-8.13-16.87h0q-0.21-.44-0.4-0.92h0l0.42-.17q0-.31,0-0.62h0l1,0.05c0,0.48,0,.94,0,1.4h0c2.33,4.67,5.85,5.69,10.09,5.72h0c3.76,0,8-.9,12-0.9h0c4,0,8,.95,11,4.73h0a9.1,9.1,0,0,1,2.27,5.48h0c-0.07,4.78-5.72,7.29-12.28,7.29h0a26.87,26.87,0,0,1-16-5.19h0Zm16,4.19a17.29,17.29,0,0,0,8.08-1.73h0c2-1.12,3.19-2.64,3.2-4.56h0a8.14,8.14,0,0,0-2.06-4.86h0c-2.73-3.48-6.24-4.34-10.17-4.35h0c-3.91,0-8.14.9-12,.9h0c-3.84,0-7.48-.94-10-4.57h0c1.19,13.6,13.36,19.14,23,19.16h0Z" transform="translate(-196 -27)"/></g><g id="Layer_2" data-name="Layer 2"><path class="cls-48" d="M592.71,490.91c-17.93-1.08-37.68-4.24-57.25-12.13-19.23-7.81-39.32-21.37-48.4-43.34-9.4-21.83-7.09-47.56-5.42-73.33,0.71-13,1.48-26.48-1.22-40.07-2.42-13.56-10.34-26.81-22.4-34.64-24.46-15.44-52.9-16.43-78.64-18.12-26.18-1-51.39,1.34-75.13,4.56C264.51,279.16,227.81,287.34,196,285v2.19c32.23,2.75,69.15-5.12,108.67-10.1,23.66-3,48.67-5.14,74.55-4.09,25.44,1.7,53.71,3.06,76.58,17.61,11.26,7.36,18.43,19.31,20.82,32.18,2.6,12.88,1.93,26.15,1.27,39.07-1.52,25.65-3.87,52,6.13,74.86,9.75,23,30.79,36.8,50.44,44.52,20,7.83,40,10.76,58.15,11.61a223.68,223.68,0,0,0,23-.19V491A224.31,224.31,0,0,1,592.71,490.91Z" transform="translate(-196 -27)"/><path class="cls-49" d="M593.71,489.41c-17.93-1.08-37.68-4.24-57.25-12.13-19.23-7.81-39.32-21.37-48.4-43.34-9.4-21.83-7.09-47.56-5.42-73.33,0.71-13,1.48-26.48-1.22-40.07C479,307,471.08,293.71,459,285.88c-24.46-15.44-52.9-16.43-78.64-18.12-26.18-1-51.39,1.34-75.13,4.56C265.1,277.72,228,286,196,283.42v2.18c32.46,3,69.74-5,109.67-10,23.66-3,48.67-5.14,74.55-4.09,25.44,1.7,53.71,3.06,76.58,17.61,11.26,7.36,18.43,19.31,20.82,32.18,2.6,12.88,1.93,26.15,1.27,39.07-1.52,25.65-3.87,52,6.13,74.86,9.75,23,30.79,36.8,50.44,44.52,20,7.83,40,10.76,58.15,11.61A223.67,223.67,0,0,0,616,491.2v-1.65C608.91,489.86,601.48,489.84,593.71,489.41Z" transform="translate(-196 -27)"/><path class="cls-50" d="M565.34,547.79c-15.15-8.77-29.7-22.66-38.13-41.55-8.67-18.8-11.37-41.29-8.86-64.47,1.69-22.86,7.15-48.91-4-73.5-11.42-24.08-36.25-40.07-62.51-47-53.82-14.13-106.19-1.58-152.37,1.9-38.71,3.64-76.16-.81-103.44-15.85v2.52c27.54,15.23,65.12,19.95,103.69,16.63,46.56-3.2,98.62-15.25,151.08-1.42,25.56,6.74,49.35,22.22,60.16,44.83,10.67,23,5.73,48.52,4.12,71.65-2.36,23.45.6,46.71,9.73,65.86,8.89,19.34,24.05,33.43,39.58,42.12a153.92,153.92,0,0,0,50.72,16.66V565A153.4,153.4,0,0,1,565.34,547.79Z" transform="translate(-196 -27)"/><path class="cls-49" d="M566.84,547.79c-15.15-8.77-29.7-22.66-38.13-41.55-8.67-18.8-11.37-41.29-8.86-64.47,1.69-22.86,7.15-48.91-4-73.5-11.42-24.08-36.25-40.07-62.51-47-53.82-14.13-106.19-1.58-152.37,1.9-39.43,3.7-77.54-1-104.94-16.7V309c27.67,15.91,65.92,20.86,105.19,17.48,46.56-3.2,98.62-15.25,151.08-1.42,25.56,6.74,49.35,22.22,60.16,44.83,10.67,23,5.73,48.52,4.12,71.65-2.36,23.45.6,46.71,9.73,65.86,8.89,19.34,24.05,33.43,39.58,42.12A153.65,153.65,0,0,0,616,566.06v-1.18A153.11,153.11,0,0,1,566.84,547.79Z" transform="translate(-196 -27)"/><path class="cls-51" d="M395,318.54c-35.32-.06-82.87,10.34-135.46,8.71-23.48-.9-45.73-6-63.58-16.1v7.9c18.1,10,40.46,15.19,63.23,16,54.12,1.62,101.52-10.82,135.9-12.62,34.72-2.11,55.91,4.15,55.86,3.88C451.08,326.63,430.38,318.4,395,318.54Z" transform="translate(-196 -27)"/><path class="cls-51" d="M616,480.63c-6.18,0-12.69-.1-19.43-0.51C557.1,479,525.88,469.51,526,469c-0.63.31,29,17.69,70.21,18.95a162.38,162.38,0,0,0,19.79-.1v-7.22Z" transform="translate(-196 -27)"/><path class="cls-51" d="M485,332c-0.17,0-.23-4-1.22-11a49.71,49.71,0,0,0-12.54-26.27c-16.86-18.8-52.37-28.45-90.54-29.32C303.39,264.32,240.9,279.74,241,279c-0.14.8,60.49-22.44,140-21.44,39.2,0.85,76.62,13,93.27,34.63A50.17,50.17,0,0,1,485,320.85C485.27,328.07,484.83,332,485,332Z" transform="translate(-196 -27)"/><path class="cls-52" d="M493.77,335.64C475.87,301.35,501,222,557,245c20.93,8.6,27.38,37.07,12.15,63.39-9.56,16.54-29.08,22.4-43.56,22.57-12.4.14-20.76-5.4-30.3,6.31" transform="translate(-196 -27)"/><path class="cls-53" d="M473.42,347.42c-39.24-37.52-142.6-15.15-95,46.38,10.37,13.43,43.65,31.88,58.12,13,11.5-15-9.26-27.3-5.47-42.29,4.05-16,24-19.62,38.3-17.61Z" transform="translate(-196 -27)"/><path class="cls-54" d="M485.76,298.26l0.17,0c-0.57-17.47,14-32,12.1-46.39-2.55-19.75-22.55-6.46-25.87,11.37-2.38,12.82,5.21,25,13.46,34Z" transform="translate(-196 -27)"/><path class="cls-55" d="M502.81,338.09c21.28-1.43,21.39,25.12,36.32,29.69,19,5.84,15.21-17.87.34-28.25-10.69-7.47-24.9-5.58-36.54-1.8Z" transform="translate(-196 -27)"/><circle class="cls-56" cx="259" cy="345" r="18"/><path class="cls-57" d="M368.33,334.33c-17.75-1.5-38.72.91-53.84,11-16.27,10.85-22,32.33-1.91,43.08,11.85,6.34,31,3.43,34.43-11.32,2.25-9.63-7.37-18.38-4.28-28.33C346,338.2,356.75,334.43,367,335" transform="translate(-196 -27)"/><path class="cls-58" d="M472,283c-20.72-9.82-54.23-39-41.29-65.2s57.12-31.24,77-3.47c10,14-.66,47-6.33,35.67-1.67-3.33-1.49-17.47-18.67-9.33C470,246.67,466.35,271.53,472,283" transform="translate(-196 -27)"/><path class="cls-59" d="M510.65,353.64c14.46,9.47,8.71,36.7,22.31,38.41,11.54,1.45,6.36-14,.54-22-8-11-16.31-13.76-22.85-16.36" transform="translate(-196 -27)"/><path class="cls-60" d="M433.67,260.33c-9.25-4.67-25-14.12-28.05-24.93-2.92-10.22,1.31-18.39,12.84-10,10.41,7.59,4.43,26,14.55,34.92" transform="translate(-196 -27)"/><path class="cls-61" d="M513,242.33c14.57-20.69-9.56-29.7-4.46-46.26,4-13,18.43-7.73,22.15,2.42,2.89,7.89-2.16,18.77-5.83,25.75-3.25,6.18-8.15,11.1-11.19,17.43" transform="translate(-196 -27)"/><path class="cls-62" d="M516.33,241.67c3.73-5.84,10.19-14,16.86-16.55,4.8-1.81,23.33-2.85,16.65,7.62-4.27,6.69-25.29.51-33.51,8.93" transform="translate(-196 -27)"/><path class="cls-63" d="M303,341c-10.24-.2-71.44-7.51-73.26,6.43-1.6,12.22,41.34,2.12,48.26.57,7.24-1.62,17.47-4.52,24.67-6.33" transform="translate(-196 -27)"/><path class="cls-64" d="M305,345c-15.64,5.15-42.33,12.33-35.67,38,2.55,9.83,17.72,18.74,27,10,5.67-5.33-1.33-14-1-23.67,0.41-12,4-16.85,9.67-24.33" transform="translate(-196 -27)"/><path class="cls-65" d="M365,336.5c-11.17-1.67-26.2,13.83-16.5,19.83,10.5,6.5,22.66-8.3,10.63-10.57,0.08-4.22,2.31-7.29,5.86-9.27" transform="translate(-196 -27)"/></g><g id="Layer_5" data-name="Layer 5"><circle class="cls-66" cx="358.33" cy="244" r="33.33"/><circle class="cls-67" cx="266.33" cy="191.33" r="23.33"/><circle class="cls-68" cx="202.33" cy="382.67" r="42"/><circle class="cls-69" cx="253" cy="415.33" r="20.67"/><circle class="cls-70" cx="180.33" cy="454.67" r="12"/><circle class="cls-71" cx="142.33" cy="419.33" r="8.66"/><circle class="cls-72" cx="162.33" cy="422.67" r="12"/><circle class="cls-73" cx="147.67" cy="206" r="12"/><circle class="cls-74" cx="190.33" cy="175.33" r="23.33"/><circle class="cls-75" cx="241" cy="146.67" r="6.67"/><circle class="cls-76" cx="153.67" cy="160.67" r="6.67"/><circle class="cls-77" cx="181" cy="130.67" r="10.67"/><circle class="cls-78" cx="319.67" cy="146.67" r="10.66"/><circle class="cls-79" cx="277" cy="326.67" r="6"/><circle class="cls-80" cx="335" cy="378" r="4.67"/><circle class="cls-81" cx="338.33" cy="393.33" r="6.67"/><circle class="cls-82" cx="352.33" cy="378" r="4.67"/><circle class="cls-83" cx="345" cy="426" r="8.67"/><circle class="cls-84" cx="299.67" cy="159.33" r="6"/><circle class="cls-85" cx="281" cy="153.33" r="7.33"/><circle class="cls-86" cx="290.33" cy="134.67" r="6.67"/><circle class="cls-87" cx="369" cy="208" r="6.67"/><circle class="cls-88" cx="361.67" cy="192.67" r="2.67"/><circle class="cls-89" cx="386.33" cy="192" r="3.33"/><circle class="cls-90" cx="53.67" cy="338.67" r="5.33"/><circle class="cls-91" cx="58.33" cy="360" r="10"/><circle class="cls-92" cx="22.33" cy="354" r="6"/><circle class="cls-93" cx="23" cy="372.67" r="3.33"/><circle class="cls-94" cx="35.67" cy="358.67" r="3.33"/><circle class="cls-95" cx="197.67" cy="208.67" r="4.67"/><circle class="cls-96" cx="203.67" cy="196.67" r="2"/><circle class="cls-97" cx="203" cy="180.67" r="6.67"/><circle class="cls-98" cx="167.67" cy="364.67" r="6.67"/><circle class="cls-99" cx="179.67" cy="379.33" r="3.33"/><circle class="cls-100" cx="217" cy="393.33" r="10"/></g><g id="Layer_6" data-name="Layer 6"><path class="cls-101" d="M504.5,336A31.5,31.5,0,0,1,536,304.5h0A31.5,31.5,0,0,1,567.5,336h0A31.5,31.5,0,0,1,536,367.5h0A31.5,31.5,0,0,1,504.5,336h0Zm1,0A30.54,30.54,0,0,0,536,366.5h0A30.54,30.54,0,0,0,566.5,336h0A30.54,30.54,0,0,0,536,305.5h0A30.54,30.54,0,0,0,505.5,336h0Z" transform="translate(-196 -27)"/><path class="cls-101" d="M544.5,313A16.5,16.5,0,0,1,561,296.5h0A16.5,16.5,0,0,1,577.5,313h0A16.5,16.5,0,0,1,561,329.5h0A16.5,16.5,0,0,1,544.5,313h0Zm1,0A15.52,15.52,0,0,0,561,328.5h0A15.52,15.52,0,0,0,576.5,313h0A15.52,15.52,0,0,0,561,297.5h0A15.52,15.52,0,0,0,545.5,313h0Z" transform="translate(-196 -27)"/><path class="cls-101" d="M430.5,274A16.51,16.51,0,0,1,447,257.5h0A16.5,16.5,0,0,1,463.5,274h0A16.51,16.51,0,0,1,447,290.5h0A16.51,16.51,0,0,1,430.5,274h0Zm1,0A15.52,15.52,0,0,0,447,289.5h0A15.52,15.52,0,0,0,462.5,274h0A15.52,15.52,0,0,0,447,258.5h0A15.52,15.52,0,0,0,431.5,274h0Z" transform="translate(-196 -27)"/><path class="cls-101" d="M398.5,246A31.5,31.5,0,0,1,430,214.5h0A31.5,31.5,0,0,1,461.5,246h0A31.5,31.5,0,0,1,430,277.5h0A31.5,31.5,0,0,1,398.5,246h0Zm1,0A30.54,30.54,0,0,0,430,276.5h0A30.54,30.54,0,0,0,460.5,246h0A30.54,30.54,0,0,0,430,215.5h0A30.54,30.54,0,0,0,399.5,246h0Z" transform="translate(-196 -27)"/><path class="cls-101" d="M468.5,266a7.5,7.5,0,0,1,7.5-7.5h0a7.5,7.5,0,0,1,7.5,7.5h0a7.5,7.5,0,0,1-7.5,7.5h0a7.51,7.51,0,0,1-7.5-7.5h0Zm1,0a6.51,6.51,0,0,0,6.5,6.5h0a6.51,6.51,0,0,0,6.5-6.5h0a6.51,6.51,0,0,0-6.5-6.5h0a6.51,6.51,0,0,0-6.5,6.5h0Z" transform="translate(-196 -27)"/><path class="cls-101" d="M523.5,304a7.5,7.5,0,0,1,7.5-7.5h0a7.5,7.5,0,0,1,7.5,7.5h0a7.5,7.5,0,0,1-7.5,7.5h0a7.5,7.5,0,0,1-7.5-7.5h0Zm1,0a6.51,6.51,0,0,0,6.5,6.5h0a6.51,6.51,0,0,0,6.5-6.5h0a6.51,6.51,0,0,0-6.5-6.5h0a6.51,6.51,0,0,0-6.5,6.5h0Z" transform="translate(-196 -27)"/><path class="cls-101" d="M501.5,212a7.5,7.5,0,0,1,7.5-7.5h0a7.5,7.5,0,0,1,7.5,7.5h0a7.5,7.5,0,0,1-7.5,7.5h0a7.5,7.5,0,0,1-7.5-7.5h0Zm1,0a6.51,6.51,0,0,0,6.5,6.5h0a6.51,6.51,0,0,0,6.5-6.5h0a6.51,6.51,0,0,0-6.5-6.5h0a6.51,6.51,0,0,0-6.5,6.5h0Z" transform="translate(-196 -27)"/><path class="cls-101" d="M431.5,358a7.5,7.5,0,0,1,7.5-7.5h0a7.5,7.5,0,0,1,7.5,7.5h0a7.5,7.5,0,0,1-7.5,7.5h0a7.5,7.5,0,0,1-7.5-7.5h0Zm1,0a6.51,6.51,0,0,0,6.5,6.5h0a6.51,6.51,0,0,0,6.5-6.5h0a6.51,6.51,0,0,0-6.5-6.5h0a6.51,6.51,0,0,0-6.5,6.5h0Z" transform="translate(-196 -27)"/><path class="cls-101" d="M405.62,366A22.37,22.37,0,0,1,428,343.62h0A22.37,22.37,0,0,1,450.37,366h0A22.38,22.38,0,0,1,428,388.38h0A22.38,22.38,0,0,1,405.62,366h0Zm1,0A21.4,21.4,0,0,0,428,387.37h0A21.4,21.4,0,0,0,449.37,366h0A21.4,21.4,0,0,0,428,344.62h0A21.4,21.4,0,0,0,406.63,366h0Z" transform="translate(-196 -27)"/><path class="cls-101" d="M380.62,416A18.37,18.37,0,0,1,399,397.62h0A18.38,18.38,0,0,1,417.38,416h0A18.37,18.37,0,0,1,399,434.37h0A18.37,18.37,0,0,1,380.62,416h0Zm1,0A17.4,17.4,0,0,0,399,433.37h0A17.39,17.39,0,0,0,416.37,416h0A17.39,17.39,0,0,0,399,398.62h0A17.4,17.4,0,0,0,381.62,416h0Z" transform="translate(-196 -27)"/><path class="cls-101" d="M331.63,366A29.37,29.37,0,0,1,361,336.62h0A29.38,29.38,0,0,1,390.38,366h0A29.38,29.38,0,0,1,361,395.38h0A29.38,29.38,0,0,1,331.63,366h0Zm1,0A28.41,28.41,0,0,0,361,394.37h0A28.41,28.41,0,0,0,389.37,366h0A28.41,28.41,0,0,0,361,337.63h0A28.41,28.41,0,0,0,332.63,366h0Z" transform="translate(-196 -27)"/><path class="cls-101" d="M354.62,394A19.37,19.37,0,0,1,374,374.62h0A19.37,19.37,0,0,1,393.37,394h0A19.38,19.38,0,0,1,374,413.38h0A19.38,19.38,0,0,1,354.62,394h0Zm1,0A18.4,18.4,0,0,0,374,412.37h0A18.4,18.4,0,0,0,392.37,394h0A18.4,18.4,0,0,0,374,375.62h0A18.4,18.4,0,0,0,355.62,394h0Z" transform="translate(-196 -27)"/><path class="cls-101" d="M287.62,354A10.38,10.38,0,0,1,298,343.63h0A10.37,10.37,0,0,1,308.37,354h0A10.38,10.38,0,0,1,298,364.38h0A10.38,10.38,0,0,1,287.62,354h0Zm1,0a9.38,9.38,0,0,0,9.37,9.37h0a9.38,9.38,0,0,0,9.37-9.37h0a9.39,9.39,0,0,0-9.37-9.37h0a9.39,9.39,0,0,0-9.37,9.38h0Z" transform="translate(-196 -27)"/><path class="cls-101" d="M267.62,352A15.37,15.37,0,0,1,283,336.62h0A15.37,15.37,0,0,1,298.38,352h0A15.38,15.38,0,0,1,283,367.38h0A15.38,15.38,0,0,1,267.62,352h0Zm1,0A14.39,14.39,0,0,0,283,366.37h0A14.39,14.39,0,0,0,297.38,352h0A14.39,14.39,0,0,0,283,337.62h0A14.39,14.39,0,0,0,268.62,352h0Z" transform="translate(-196 -27)"/></g></g></svg>